<svg width="20" height="20" viewBox="0 0 20 20" fill="none" xmlns="http://www.w3.org/2000/svg">
<path d="M2.1875 18.75H14.6875C14.9361 18.75 15.1746 18.6512 15.3504 18.4754C15.5262 18.2996 15.625 18.0611 15.625 17.8125V5C15.625 4.83424 15.5592 4.67527 15.4419 4.55806C15.3247 4.44085 15.1658 4.375 15 4.375H2.1875C1.93886 4.375 1.7004 4.47377 1.52459 4.64959C1.34877 4.8254 1.25 5.06386 1.25 5.3125V17.8125C1.25 18.0611 1.34877 18.2996 1.52459 18.4754C1.7004 18.6512 1.93886 18.75 2.1875 18.75Z" fill="white"/>
<path d="M15.625 3.125H4.375V2.1875C4.375 1.93886 4.47377 1.7004 4.64959 1.52459C4.8254 1.34877 5.06386 1.25 5.3125 1.25H17.6562C17.9463 1.25 18.2245 1.36523 18.4296 1.57035C18.6348 1.77547 18.75 2.05367 18.75 2.34375V14.6875C18.75 14.9361 18.6512 15.1746 18.4754 15.3504C18.2996 15.5262 18.0611 15.625 17.8125 15.625H16.875V4.375C16.875 4.04348 16.7433 3.72554 16.5089 3.49112C16.2745 3.2567 15.9565 3.125 15.625 3.125Z" fill="white"/>
</svg>
