<?xml version="1.0" encoding="UTF-8"?>
<svg id="Layer_1" xmlns="http://www.w3.org/2000/svg" xmlns:xlink="http://www.w3.org/1999/xlink" version="1.1" viewBox="0 0 37 36">
  <!-- Generator: Adobe Illustrator 29.2.1, SVG Export Plug-In . SVG Version: 2.1.0 Build 116)  -->
  <defs>
    <style>
      .st0 {
        fill: none;
      }

      .st1 {
        fill: #fff;
        fill-rule: evenodd;
      }

      .st2 {
        clip-path: url(#clippath);
      }
    </style>
    <clipPath id="clippath">
      <rect class="st0" x="6.4" y="3.5" width="24.2" height="29"/>
    </clipPath>
  </defs>
  <rect width="37" height="36"/>
  <g class="st2">
    <g>
      <path class="st1" d="M21,13.8c.9-.4,2-1.1,3.1-2,.2.5.3.9.1,1.3,0,.2-.2.5-.5.6-.2.2-.5.3-.8.4-.6.1-1.3,0-2-.3ZM21.1,18.4l1.2.7c-2.4,1.3-3,3.8-3.8,6.3-.8-2.4-1.4-4.9-3.8-6.3l1.2-.7c.2,0,.4-.3.4-.6-.1-2.3.5-3.3,1.3-3.9.3-.2.6-.3.9-.3s.6.1.9.3c.8.6,1.4,1.6,1.3,3.9,0,.2.1.5.4.6h0ZM18.5,3.5c1.4,0,2.7.3,3.9.8.8.4,1.6.8,2.3,1.4.3.3.6.5.8.8.8,0,1.9-.8,2.4-1.6-.9,2.9-4.9,6.4-7.7,7.7,0,0,0,0,0,0-.5-.4-1.1-.6-1.6-.6s-1.1.2-1.6.6c0,0,0,0,0,0-2.8-1.3-6.8-4.8-7.7-7.7.5.8,1.6,1.6,2.4,1.6.3-.3.5-.5.8-.8.7-.6,1.4-1,2.3-1.4,1.2-.5,2.5-.8,3.9-.8ZM16,13.8c-.9-.4-2-1.1-3.1-2-.2.5-.3.9-.1,1.3,0,.2.2.5.5.6.2.2.5.3.8.4.6.1,1.3,0,2-.3Z"/>
      <path class="st1" d="M25.3,10.8c.6-.6,1.2-1.3,1.6-1.9l.2.4c.7,1.4,1.1,2.9,1.1,4.5v2.6s0,1.3,0,1.3c0,3.3.8,6.6,2.3,9.6l-3.3-2.7-2.4,3.8-2.5-2.3-4,6.5-4-6.5-2.5,2.3-2.4-3.8-3.3,2.7c1.6-3,2.3-6.3,2.3-9.6v-1.3s0-2.6,0-2.6c0-1.6.4-3.1,1.1-4.5l.2-.4c.4.6,1,1.3,1.6,1.9l-.2.4c-.4.8-.5,1.7-.2,2.5.2.5.5,1,1,1.3.4.3.9.6,1.5.7.3,0,.7.1,1.1.1,0,.5-.1,1-.1,1.4l-3.1,1.8,2.4,1.4c.2.1.4.2.6.4,2,1.8,3.2,7.1,4,9.7.8-2.6,2-7.9,4-9.7.2-.1.4-.3.6-.4l2.4-1.4-3.1-1.8c0-.5,0-1-.1-1.4.4,0,.7,0,1.1-.1.5-.1,1-.4,1.5-.7.4-.4.8-.8,1-1.3.3-.8.2-1.7-.2-2.5l-.2-.4h0Z"/>
    </g>
  </g>
</svg>