<?xml version="1.0" encoding="UTF-8"?>
<svg id="Layer_1" xmlns="http://www.w3.org/2000/svg" xmlns:xlink="http://www.w3.org/1999/xlink" version="1.1" viewBox="0 0 37 36">
  <!-- Generator: Adobe Illustrator 29.2.1, SVG Export Plug-In . SVG Version: 2.1.0 Build 116)  -->
  <defs>
    <style>
      .st0 {
        fill: none;
      }

      .st1 {
        fill: url(#linear-gradient2);
      }

      .st2 {
        fill: url(#linear-gradient1);
      }

      .st3 {
        fill: url(#linear-gradient3);
      }

      .st4 {
        fill: url(#linear-gradient5);
      }

      .st5 {
        fill: url(#linear-gradient4);
      }

      .st6 {
        fill: url(#linear-gradient);
      }

      .st7 {
        fill: #141726;
      }

      .st8 {
        clip-path: url(#clippath);
      }
    </style>
    <clipPath id="clippath">
      <rect class="st0" x=".8" y=".3" width="35.5" height="35.5"/>
    </clipPath>
    <linearGradient id="linear-gradient" x1="26.3" y1="30.4" x2="11.8" y2="7.2" gradientTransform="translate(0 36.6) scale(1 -1)" gradientUnits="userSpaceOnUse">
      <stop offset=".2" stop-color="#c6f462"/>
      <stop offset=".9" stop-color="#33d9ff"/>
    </linearGradient>
    <linearGradient id="linear-gradient1" x1="26.2" y1="30.5" x2="11.7" y2="7.3" gradientTransform="translate(0 36.6) scale(1 -1)" gradientUnits="userSpaceOnUse">
      <stop offset=".2" stop-color="#c6f462"/>
      <stop offset=".9" stop-color="#33d9ff"/>
    </linearGradient>
    <linearGradient id="linear-gradient2" x1="26.4" y1="30.4" x2="11.9" y2="7.2" gradientTransform="translate(0 36.6) scale(1 -1)" gradientUnits="userSpaceOnUse">
      <stop offset=".2" stop-color="#c6f462"/>
      <stop offset=".9" stop-color="#33d9ff"/>
    </linearGradient>
    <linearGradient id="linear-gradient3" x1="26" y1="30.6" x2="11.5" y2="7.4" gradientTransform="translate(0 36.6) scale(1 -1)" gradientUnits="userSpaceOnUse">
      <stop offset=".2" stop-color="#c6f462"/>
      <stop offset=".9" stop-color="#33d9ff"/>
    </linearGradient>
    <linearGradient id="linear-gradient4" x1="26.1" y1="30.5" x2="11.6" y2="7.3" gradientTransform="translate(0 36.6) scale(1 -1)" gradientUnits="userSpaceOnUse">
      <stop offset=".2" stop-color="#c6f462"/>
      <stop offset=".9" stop-color="#33d9ff"/>
    </linearGradient>
    <linearGradient id="linear-gradient5" x1="26.4" y1="30.3" x2="12" y2="7.1" gradientTransform="translate(0 36.6) scale(1 -1)" gradientUnits="userSpaceOnUse">
      <stop offset=".2" stop-color="#c6f462"/>
      <stop offset=".9" stop-color="#33d9ff"/>
    </linearGradient>
  </defs>
  <rect class="st7" width="37" height="36"/>
  <g class="st8">
    <g>
      <path class="st6" d="M24.5,25.5c-3-4.8-7.4-7.5-12.8-8.7-1.9-.4-3.9-.4-5.7.3-1.3.5-1.5,1-.9,2.4,4.1-1,7.9,0,11.5,2,3.6,2.1,6.3,5,7.5,9.1,1.7-.5,1.9-.8,1.5-2.4-.2-.9-.5-1.9-1.1-2.7Z"/>
      <path class="st2" d="M27.8,21.6c-3.8-5.5-9.2-8.6-15.8-9.7-1.7-.3-3.5-.2-5.2.6-.8.4-1.5.9-1.7,2,5.1-1.4,9.7-.2,14.1,2.4,4.4,2.5,7.8,5.9,9.1,11.1.9-.8,1.1-1.8.8-2.8-.3-1.3-.7-2.6-1.4-3.7Z"/>
      <path class="st1" d="M5.4,21.9c.3.7.5,1.5,1,2.1.2.3,1,.2,1.5.3,0,0,.2,0,.2,0,4.6.7,8.2,2.9,10.7,6.7.2.2.4.6.6.6.8,0,1.5-.1,2.3-.2-1.2-6.4-10.8-11.7-16.4-9.5Z"/>
      <path class="st3" d="M29.9,16.5c-2.5-3.5-6-5.9-9.9-7.5-2.7-1.2-5.6-1.9-8.6-1.5-1,.1-2,.4-2.8,1.1,10.2.3,17.9,4.7,23.2,13.5,0-.6,0-1.2-.1-1.8-.5-1.3-1-2.7-1.8-3.8Z"/>
      <path class="st5" d="M32.2,14.7c-2.1-7.9-10.6-11.8-16.8-9.8,6.7,1.3,12.3,4.5,16.8,9.8Z"/>
      <path class="st4" d="M7.7,26.2c2.4,3.1,5.5,4.9,9.4,5.4-1.5-2.8-6.8-5.9-9.4-5.4Z"/>
    </g>
  </g>
</svg>