<svg width="22" height="22" viewBox="0 0 22 22" fill="none" xmlns="http://www.w3.org/2000/svg">
<g clip-path="url(#clip0_273_30740)">
<path d="M0 0H22V22H0V0Z" fill="#1A1A1C"/>
<path d="M19.0855 12.2307C19.1952 11.9344 19.25 11.6273 19.25 11.3091C19.25 10.925 19.1952 10.5742 19.0746 10.245C18.1091 7.62296 14.6532 6.78906 10.4515 6.78906C6.24972 6.78906 3.59485 7.95188 2.91444 9.79511C2.80483 10.0914 2.75 10.3984 2.75 10.7167C2.75 11.1008 2.80483 11.4516 2.92544 11.7809C3.89091 14.4028 7.34675 15.2367 11.5485 15.2367C15.7503 15.2367 18.4051 14.0736 19.0855 12.2307ZM13.6771 11.737C13.4578 12.3294 12.5253 12.8231 11.2196 12.8231C9.78235 12.8231 8.67436 12.3952 8.33418 11.4845C8.22452 11.2101 8.21356 11.0456 8.21356 10.8592C8.21356 10.6948 8.21356 10.5519 8.32322 10.2888C8.54249 9.69641 9.47504 9.20275 10.7807 9.20275C12.2179 9.20275 13.3259 9.63063 13.6662 10.5413C13.7758 10.8157 13.7867 10.9801 13.7867 11.1665C13.7867 11.331 13.7867 11.4739 13.6771 11.737Z" fill="white"/>
<path d="M12.1396 11.321C12.0462 11.5732 11.6493 11.7834 11.0933 11.7834C10.4815 11.7834 10.0097 11.6014 9.86502 11.2136C9.81836 11.0967 9.81363 11.0269 9.81363 10.9473C9.81363 10.8771 9.81363 10.8167 9.86034 10.7045C9.95367 10.4524 10.3506 10.2422 10.9066 10.2422C11.5184 10.2422 11.9902 10.4242 12.1349 10.812C12.1816 10.9288 12.1863 10.9987 12.1863 11.0783C12.1863 11.1484 12.1863 11.2089 12.1396 11.321Z" fill="white"/>
</g>
<defs>
<clipPath id="clip0_273_30740">
<rect width="22" height="22" rx="4" transform="matrix(-1 0 0 1 22 0)" fill="white"/>
</clipPath>
</defs>
</svg>
