<svg width="22" height="22" viewBox="0 0 22 22" fill="none" xmlns="http://www.w3.org/2000/svg">
<g clip-path="url(#clip0_273_30689)">
<mask id="mask0_273_30689" style="mask-type:luminance" maskUnits="userSpaceOnUse" x="0" y="0" width="22" height="22">
<path d="M0 0H22V22H0V0Z" fill="white"/>
</mask>
<g mask="url(#mask0_273_30689)">
<path d="M0 0H22V22H0V0Z" fill="url(#paint0_linear_273_30689)"/>
<path d="M7.40778 5.50001C6.729 5.50093 6.06571 5.70292 5.50164 6.08049C4.93757 6.45806 4.49799 6.99428 4.23841 7.62146C3.97883 8.24864 3.91088 8.93867 4.04313 9.60444C4.17538 10.2702 4.50191 10.8819 4.98149 11.3622C5.38086 11.7618 5.87264 12.0567 6.41323 12.2207C6.95382 12.3848 7.52653 12.4129 8.08061 12.3027C8.63469 12.1925 9.15302 11.9473 9.58967 11.5888C10.0263 11.2304 10.3678 10.7697 10.5838 10.2477C10.7999 9.72575 10.8838 9.15852 10.8282 8.59633C10.7726 8.03414 10.5792 7.49434 10.2651 7.02478C9.95096 6.55523 9.52586 6.17041 9.02745 5.90444C8.52904 5.63846 7.97271 5.49955 7.40778 5.50001ZM7.40778 10.9615C7.00681 10.9615 6.61485 10.8426 6.28147 10.6198C5.94809 10.397 5.68827 10.0804 5.53486 9.70994C5.38146 9.33948 5.34136 8.93185 5.41964 8.5386C5.49792 8.14535 5.69107 7.78415 5.97465 7.50068C6.25823 7.21721 6.6195 7.0242 7.01278 6.94608C7.40606 6.86795 7.81368 6.9082 8.18407 7.06175C8.55447 7.2153 8.87101 7.47525 9.09367 7.80871C9.31632 8.14218 9.43507 8.53418 9.43492 8.93515C9.43347 9.47233 9.21943 9.9871 8.83958 10.367C8.45973 10.7468 7.94496 10.9601 7.40778 10.9615ZM17.5341 8.43779C17.5351 8.92946 17.4107 9.41326 17.1726 9.84343C16.8055 9.54474 16.3877 9.31453 15.9391 9.16379C16.0491 8.95902 16.1111 8.73184 16.1202 8.49953C16.1293 8.26721 16.0853 8.03589 15.9915 7.82315C15.8977 7.6104 15.7567 7.42184 15.5791 7.2718C15.4015 7.12176 15.192 7.0142 14.9666 6.95729C14.7412 6.90038 14.5058 6.89563 14.2782 6.94339C14.0507 6.99115 13.8371 7.09017 13.6536 7.23291C13.4701 7.37566 13.3215 7.55837 13.2192 7.76716C13.117 7.97594 13.0636 8.2053 13.0633 8.43779C13.0626 8.69158 13.1262 8.94143 13.248 9.16379C12.7994 9.31459 12.3816 9.5448 12.0144 9.84343C11.7696 9.39609 11.6456 8.89268 11.6546 8.38281C11.6636 7.87294 11.8053 7.37422 12.0658 6.9358C12.3262 6.49738 12.6964 6.1344 13.1399 5.88263C13.5833 5.63085 14.0848 5.49898 14.5947 5.50001C15.3737 5.50105 16.1206 5.81098 16.6714 6.36184C17.2223 6.91271 17.5322 7.65954 17.5333 8.43858L17.5341 8.43779ZM14.5947 9.62658C13.9154 9.6261 13.2512 9.82703 12.6861 10.204C12.121 10.5809 11.6804 11.1169 11.4198 11.7443C11.1593 12.3716 11.0906 13.0621 11.2225 13.7285C11.3543 14.3948 11.6808 15.0071 12.1606 15.488C12.6404 15.9691 13.2521 16.2971 13.9184 16.4305C14.5847 16.5638 15.2755 16.4965 15.9035 16.2371C16.5315 15.9777 17.0685 15.5378 17.4464 14.9731C17.8244 14.4084 18.0263 13.7443 18.0267 13.0649C18.0259 12.1543 17.6642 11.2812 17.021 10.6368C16.3777 9.99232 15.5052 9.62907 14.5947 9.62658ZM14.5947 15.0849C14.0579 15.0843 13.5433 14.8705 13.1642 14.4905C12.7851 14.1104 12.5724 13.5954 12.5731 13.0586C12.5737 12.5218 12.7875 12.0072 13.1675 11.6281C13.5476 11.249 14.0626 11.0363 14.5994 11.0369C15.1362 11.0376 15.6508 11.2514 16.0299 11.6314C16.409 12.0114 16.6217 12.5265 16.6211 13.0633C16.6204 13.6001 16.4066 14.1147 16.0266 14.4938C15.6466 14.8729 15.1315 15.0856 14.5947 15.0849ZM10.3471 13.5567C10.3471 14.3365 10.0374 15.0843 9.48598 15.6357C8.9346 16.1871 8.18676 16.4969 7.40699 16.4969C6.62722 16.4969 5.87938 16.1871 5.32799 15.6357C4.77661 15.0843 4.46685 14.3365 4.46685 13.5567H5.8772C5.8772 13.9623 6.03834 14.3513 6.32515 14.6382C6.61197 14.925 7.00098 15.0861 7.4066 15.0861C7.81222 15.0861 8.20122 14.925 8.48804 14.6382C8.77486 14.3513 8.93599 13.9623 8.93599 13.5567H10.3471Z" fill="#252525"/>
</g>
</g>
<defs>
<linearGradient id="paint0_linear_273_30689" x1="20.878" y1="1.122" x2="1.42607" y2="20.5739" gradientUnits="userSpaceOnUse">
<stop stop-color="#F1D961"/>
<stop offset="1" stop-color="#CDA146"/>
</linearGradient>
<clipPath id="clip0_273_30689">
<rect width="22" height="22" rx="4" fill="white"/>
</clipPath>
</defs>
</svg>
