<svg width="22" height="22" viewBox="0 0 22 22" fill="none" xmlns="http://www.w3.org/2000/svg">
<g clip-path="url(#clip0_273_30519)">
<path d="M2.64264 20.3078C5.49254 20.3078 7.63429 17.8269 8.91238 15.8664C8.75696 16.3001 8.67061 16.7339 8.67061 17.1503C8.67061 18.2953 9.32693 19.1107 10.6224 19.1107C12.4014 19.1107 14.3013 17.5493 15.2858 15.8664C15.2168 16.1093 15.1822 16.3349 15.1822 16.5431C15.1822 17.3411 15.6313 17.8442 16.5467 17.8442C19.4311 17.8442 22.3329 12.7263 22.3329 8.25028C22.3329 4.76314 20.5711 1.69238 16.1495 1.69238C8.37695 1.69238 0 11.1996 0 17.3411C0 19.7526 1.29541 20.3078 2.64264 20.3078ZM13.4722 7.86859C13.4722 7.00115 13.9559 6.39394 14.6641 6.39394C15.3549 6.39394 15.8385 7.00115 15.8385 7.86859C15.8385 8.73605 15.3549 9.3606 14.6641 9.3606C13.9559 9.3606 13.4722 8.73605 13.4722 7.86859ZM17.1685 7.86859C17.1685 7.00115 17.6522 6.39394 18.3603 6.39394C19.0511 6.39394 19.5348 7.00115 19.5348 7.86859C19.5348 8.73605 19.0511 9.3606 18.3603 9.3606C17.6522 9.3606 17.1685 8.73605 17.1685 7.86859Z" fill="#AB9FF2"/>
</g>
<defs>
<clipPath id="clip0_273_30519">
<rect width="22" height="22" fill="white"/>
</clipPath>
</defs>
</svg>
