<svg width="22" height="22" viewBox="0 0 22 22" fill="none" xmlns="http://www.w3.org/2000/svg">
<path d="M6.72905 9.24444L11.002 4.97323L15.2767 9.24791L17.7616 6.7613L11.002 0L4.24243 6.75956L6.72905 9.24444Z" fill="#F3BA2F"/>
<path d="M0 11.0005L2.48571 8.51478L4.97141 11.0005L2.48571 13.4862L0 11.0005Z" fill="#F3BA2F"/>
<path d="M6.7291 12.7561L11.002 17.0291L15.2767 12.7544L17.7633 15.2375L17.7616 15.2393L11.002 22.0006L4.24249 15.2427L4.23901 15.2393L6.7291 12.7561Z" fill="#F3BA2F"/>
<path d="M17.0286 11.0015L19.5143 8.51576L22 11.0015L19.5143 13.4872L17.0286 11.0015Z" fill="#F3BA2F"/>
<path d="M13.5235 10.9992L11.0021 8.47607L9.13761 10.3406L8.92214 10.5543L8.48077 10.9957L8.47729 10.9992L8.48077 11.0044L11.0021 13.524L13.5235 11.0009L13.5252 10.9992H13.5235Z" fill="#F3BA2F"/>
</svg>
