<svg width="22" height="22" viewBox="0 0 22 22" fill="none" xmlns="http://www.w3.org/2000/svg">
<g clip-path="url(#clip0_273_30624)">
<path d="M0 4C0 1.79086 1.79086 0 4 0H18C20.2091 0 22 1.79086 22 4V18C22 20.2091 20.2091 22 18 22H4C1.79086 22 0 20.2091 0 18V4Z" fill="#131313"/>
<path fill-rule="evenodd" clip-rule="evenodd" d="M9.15346 3.45703H3.45703V7.07132H4.32132V4.32132L9.15346 4.28989V3.45703ZM9.19275 8.13203V13.8285H12.807V12.9642H10.057L10.0256 8.13203H9.19275ZM3.45703 18.5427H9.15346V17.7099L4.32132 17.6785V14.9285H3.45703V18.5427ZM12.8463 3.45703H18.5427V7.07132H17.6785V4.32132L12.8463 4.28989V3.45703ZM18.5427 18.5427H12.8463V17.7099L17.6785 17.6785V14.9285H18.5427V18.5427Z" fill="white"/>
</g>
<defs>
<clipPath id="clip0_273_30624">
<rect width="22" height="22" fill="white"/>
</clipPath>
</defs>
</svg>
