<svg width="22" height="22" viewBox="0 0 22 22" fill="none" xmlns="http://www.w3.org/2000/svg">
<g clip-path="url(#clip0_357_4709)">
<path d="M0 0H22V22H0V0Z" fill="#D08E39"/>
<path fill-rule="evenodd" clip-rule="evenodd" d="M17.7023 10.2559C17.8603 10.3855 17.9671 10.567 18.0025 10.7682C18.0103 10.8287 18.0103 10.89 18.0001 10.9489C17.99 11.074 17.9671 11.1977 17.9318 11.3182C17.8705 11.5198 17.7716 11.7081 17.6403 11.8729V11.8839L17.641 11.8902C17.6434 11.9082 17.6481 11.9412 17.6575 11.99C17.6843 12.1502 17.6929 12.3129 17.6819 12.4755C17.661 12.7912 17.5866 13.101 17.4619 13.3917C17.3389 13.6946 17.1449 13.9635 16.8962 14.1758L16.8671 14.2025L16.8278 14.2159C16.5194 14.3315 16.2026 14.4237 15.8803 14.4917C15.5503 14.5671 15.2116 14.6001 14.873 14.5891H14.8156C14.1132 14.3631 13.3881 14.215 12.6533 14.1475C12.4536 14.1326 12.2551 14.1037 12.0593 14.0611C11.8673 14.0124 11.6783 13.9521 11.4936 13.8804C11.199 13.773 10.8973 13.6858 10.5908 13.6195C10.447 13.8207 10.3803 14.0674 10.403 14.3133C10.4494 14.6645 10.561 15.0047 10.7323 15.3159C10.9475 15.6537 11.1251 16.0144 11.2603 16.3907C11.3907 16.7954 11.4237 17.2236 11.3569 17.6432L11.298 18.025L10.9758 17.805C10.9181 17.7612 10.8574 17.7213 10.7943 17.6856L10.7543 17.6612L10.5335 17.5395C10.612 17.8286 10.6639 18.124 10.6883 18.4226C10.7024 18.6819 10.6977 18.9404 10.6725 19.1981C10.6526 19.4545 10.596 19.7066 10.5044 19.9469C9.58904 18.5562 8.84183 18.157 8.18733 17.8082C7.74733 17.5732 7.34976 17.3611 6.97104 16.8857C6.41004 16.0882 6.2694 15.1721 7.05118 13.4388C7.26726 12.903 7.40083 12.3152 7.51004 11.8344C7.60276 11.4282 7.6774 11.0974 7.7709 10.941V10.9536C7.70726 11.319 7.70726 11.6922 7.7709 12.0583C7.7984 12.2304 7.86283 12.3946 7.95868 12.54C8.05926 12.6712 8.1944 12.7733 8.34918 12.833C8.68311 12.9619 9.03511 13.0365 9.39183 13.0546C9.57254 13.0829 9.7564 13.0829 9.94418 13.0829C10.0408 13.0813 10.1383 13.0852 10.2349 13.0939C10.3347 13.1025 10.4313 13.1159 10.5288 13.1292C10.9138 13.1921 11.294 13.2856 11.6641 13.4097C11.998 13.5378 12.3516 13.6085 12.7091 13.6195C13.4681 13.68 14.2177 13.8285 14.9437 14.0611C15.2297 14.0705 15.5173 14.0477 15.7985 13.9951C15.9008 13.976 16.0025 13.9537 16.1034 13.9283C16.6023 13.783 17.1633 12.9352 16.5135 13.0059C16.3328 13.0137 16.1545 13.0365 15.9769 13.0719C15.8755 13.0955 15.7758 13.134 15.6689 13.174C15.5597 13.2157 15.4442 13.2589 15.3153 13.2927C15.0701 13.3484 14.8148 13.3417 14.5728 13.273C14.3615 13.1872 14.138 13.135 13.9105 13.1182C14.0165 13.0577 14.1352 13.0216 14.2562 13.0122C14.3458 13.0035 14.4251 13.0067 14.5013 13.009C14.5383 13.0106 14.5744 13.0122 14.6105 13.0122C14.8164 13.0405 15.0254 13.0318 15.2289 12.9855C15.3326 12.9564 15.4387 12.899 15.551 12.8385C15.6422 12.7898 15.738 12.7387 15.8425 12.6971C16.0728 12.6005 16.3195 12.5478 16.5693 12.5415H16.5646C16.655 12.5337 16.7453 12.5337 16.8365 12.5415C16.9201 12.4485 16.9829 12.3387 17.0208 12.2195C17.0588 12.1003 17.0709 11.9744 17.0565 11.8501C16.9934 11.7545 16.898 11.6848 16.7878 11.6537C16.7329 11.642 16.6779 11.631 16.6228 11.6207C16.2943 11.5578 15.7585 11.4533 15.5424 11.2522C15.3939 11.1084 15.3145 10.6786 15.8355 10.5584C16.112 10.5112 16.3933 10.5018 16.673 10.5325H16.6833C16.809 10.545 17.1185 10.5749 17.1916 10.512C17.1563 10.4885 17.1248 10.4649 17.0934 10.4413L17.0463 10.4067L16.3619 9.88503C16.3148 9.85203 16.2684 9.81825 16.2236 9.78525C16.1545 9.73496 16.0885 9.68625 16.0217 9.64225C15.9764 9.61046 15.9273 9.58458 15.8755 9.56525C15.8001 9.53623 15.7264 9.50291 15.6548 9.46546C15.3878 9.32796 15.1448 9.14835 14.935 8.93353C14.3012 8.28622 13.7688 7.54691 13.3558 6.7406C13.1873 6.413 12.9056 6.15778 12.563 6.02246C12.7409 6.01173 12.9192 6.03757 13.0867 6.09838C13.2543 6.15919 13.4076 6.25368 13.5373 6.37603C13.5813 6.41296 13.6378 6.51353 13.7101 6.64318C13.9113 7.00382 14.2365 7.58603 14.7669 7.60803C14.858 7.60018 14.9484 7.58053 15.034 7.54832C14.7708 7.29925 14.5933 6.9991 14.4259 6.7186C14.1729 6.29275 13.9466 5.9101 13.4885 5.81739C13.3737 5.77621 13.2614 5.72819 13.1523 5.6736L12.8435 5.52118L12.2251 5.21868C11.8163 5.02295 11.396 4.8524 10.9664 4.70796C10.5409 4.56828 10.1019 4.47374 9.65661 4.42589C9.55106 4.41218 9.44482 4.40431 9.3384 4.40232C9.2529 4.40188 9.16845 4.42124 9.09168 4.45889C9.0469 4.47853 8.99661 4.50525 8.94476 4.53275C8.88897 4.5626 8.83161 4.59325 8.77818 4.61603C8.67435 4.66001 8.5719 4.70717 8.47097 4.75746C8.06849 4.95244 7.68856 5.19088 7.33797 5.46853C7.07476 5.65396 6.84297 5.88182 6.65361 6.14189C6.9844 6.1191 7.31754 6.1631 7.63183 6.26996C7.23354 6.26265 6.83666 6.31942 6.4564 6.4381C6.27018 6.49153 6.0879 6.5591 5.91111 6.63846C5.73423 6.71418 5.56348 6.8035 5.4004 6.9056C5.2409 6.99832 5.0924 7.10989 4.95961 7.23953C4.90581 7.29387 4.86357 7.35856 4.83547 7.42968C4.79854 7.51296 4.76476 7.60332 4.73176 7.69446C4.60368 8.06532 4.50076 8.44482 4.42533 8.82982C4.26675 9.5985 4.20734 10.3843 4.24854 11.1681C4.28138 11.8002 4.44597 12.4184 4.73176 12.9831C5.00361 12.6256 5.2684 12.261 5.52533 11.8949C5.85533 11.4195 6.16176 10.9285 6.44147 10.4217C6.58683 10.1608 6.71647 9.88739 6.8469 9.6116C6.96554 9.36018 7.08576 9.1056 7.2209 8.85575C7.35604 8.58703 7.51633 8.33089 7.70018 8.09203C7.7929 7.96868 7.90133 7.85868 8.02233 7.76282C8.14237 7.663 8.29085 7.60361 8.44661 7.5931C7.95161 8.03703 7.5674 9.22896 7.18318 10.5655C6.8744 11.6497 5.82311 14.1208 5.16076 14.1829C4.90461 14.1962 4.80954 14.0745 4.63433 13.823L4.48897 13.6242C4.23486 13.2698 4.04105 12.8759 3.9154 12.4582C3.79602 12.0493 3.72172 11.6286 3.69383 11.2035C3.67363 10.7858 3.68334 10.3673 3.7229 9.95103C3.77161 9.53853 3.84547 9.12918 3.9429 8.72532C4.03561 8.31989 4.15583 7.92153 4.30354 7.53339C4.34283 7.4336 4.3829 7.33696 4.43161 7.23718C4.45833 7.18218 4.48818 7.12953 4.52197 7.07846C4.56126 7.02582 4.6029 6.97632 4.64768 6.92996C4.80876 6.77753 4.99026 6.64946 5.18668 6.5481C5.4774 6.39646 5.78618 6.2841 6.10597 6.21496C6.20576 5.98946 6.34326 5.78282 6.51218 5.60289C6.68111 5.42689 6.86418 5.26503 7.05983 5.11968C7.43461 4.82346 7.84004 4.56889 8.26983 4.35989C8.33818 4.32532 8.42068 4.28918 8.49454 4.25618L8.59197 4.21139C8.63047 4.1941 8.67054 4.17289 8.71533 4.1501C8.77033 4.12182 8.83161 4.09039 8.89918 4.05896C9.03197 3.9961 9.17654 3.96232 9.32347 3.95996C9.43897 3.95996 9.52383 3.9686 9.61104 3.97803L9.69668 3.98589C10.1713 4.03853 10.6388 4.13989 11.0921 4.28918C11.54 4.43846 11.9768 4.61682 12.4019 4.8211L13.0305 5.12596L13.3424 5.28075C13.4186 5.3216 13.5153 5.35932 13.6213 5.39939L13.6449 5.40882C13.7596 5.45282 13.8641 5.49682 13.9812 5.55653C14.0433 5.58796 14.103 5.62489 14.1595 5.66496C14.2145 5.70896 14.2656 5.7561 14.3143 5.80639C14.5065 6.01239 14.6708 6.24274 14.803 6.49153C15.0191 6.86789 15.2203 7.2191 15.5338 7.42496L15.7538 7.57032C15.7506 7.58245 15.7464 7.59428 15.7412 7.60568L15.694 7.68975L15.474 7.80289C15.4523 7.81264 15.4326 7.82662 15.4163 7.84402C15.4 7.86142 15.3873 7.88189 15.379 7.90425C15.3708 7.92533 15.3663 7.94765 15.3656 7.97025V8.11168C15.3666 8.18629 15.3568 8.26065 15.3365 8.33246C15.3279 8.35837 15.318 8.38381 15.3067 8.40868C15.2925 8.4401 15.2815 8.46682 15.2815 8.48725C15.2745 8.5103 15.2745 8.53491 15.2815 8.55796C15.4568 8.73632 15.6595 8.8856 15.8826 8.99953L16.0586 9.08125C16.1003 9.09696 16.1411 9.11425 16.1804 9.13468L16.2928 9.20303C16.3918 9.26589 16.4735 9.32718 16.5536 9.38846C16.5858 9.4136 16.6188 9.43796 16.6534 9.4631L17.3401 9.98639L17.5035 10.1082C17.5727 10.153 17.6387 10.2025 17.7023 10.2559ZM12.2762 8.21775C12.2982 8.49118 11.9713 8.70568 11.5714 8.74968C11.0678 8.80075 10.7983 8.50925 10.869 8.17139C11.0018 7.60568 10.7103 7.79818 10.5154 8.01896C10.512 8.02422 10.507 8.02814 10.501 8.03004C10.4951 8.03195 10.4887 8.03171 10.4829 8.02938C10.4771 8.02705 10.4723 8.02277 10.4694 8.01727C10.4664 8.01178 10.4655 8.00543 10.4667 7.99932C10.5484 7.41632 10.891 7.39196 11.0434 7.39196C11.5054 7.42339 11.9627 7.50196 12.4082 7.62375C12.4205 7.62654 12.4317 7.63274 12.4406 7.64164C12.4495 7.65054 12.4557 7.66177 12.4585 7.67403C12.4612 7.68626 12.4604 7.699 12.4563 7.71081C12.4521 7.72262 12.4447 7.73302 12.4349 7.74082C12.3684 7.79901 12.3186 7.87388 12.2907 7.95772C12.2628 8.04156 12.2578 8.13132 12.2762 8.21775Z" fill="#002522"/>
</g>
<defs>
<clipPath id="clip0_357_4709">
<rect width="22" height="22" fill="white"/>
</clipPath>
</defs>
</svg>
