<svg width="22" height="22" viewBox="0 0 22 22" fill="none" xmlns="http://www.w3.org/2000/svg">
<g clip-path="url(#clip0_357_4780)">
<path d="M0 0H22V22H0V0Z" fill="#2962EF"/>
<path d="M4.77191 5.5C4.39476 5.5 4.24941 5.96593 4.56605 6.16079L12.4805 10.9332C12.5758 10.9916 12.6893 11.0128 12.7992 10.9926C12.9092 10.9725 13.0078 10.9124 13.0761 10.824L16.5568 6.25586C16.7925 5.93843 16.5537 5.5 16.1443 5.5H4.77191ZM17.2105 16.5C17.5877 16.5 17.737 16.0317 17.4203 15.8369L9.50426 11.0652C9.40924 11.0076 9.29616 10.9874 9.18707 11.0086C9.07798 11.0298 8.98069 11.0909 8.91419 11.1799L5.42798 15.7473C5.19148 16.0647 5.43741 16.5 5.84755 16.5H17.2105Z" fill="white"/>
</g>
<defs>
<clipPath id="clip0_357_4780">
<rect width="22" height="22" rx="4" fill="white"/>
</clipPath>
</defs>
</svg>
