<svg width="22" height="22" viewBox="0 0 22 22" fill="none" xmlns="http://www.w3.org/2000/svg">
<g clip-path="url(#clip0_273_30746)">
<path d="M22 0H0V22H22V0Z" fill="#44D62C"/>
<path d="M22 11C22 18.5932 18.5932 22 11 22C3.40681 22 0 18.5932 0 11C0 3.40681 3.40681 0 11 0C18.5932 0 22 3.40681 22 11Z" fill="#44D62C"/>
<path d="M11.9943 4.66504H8.93433L8.39722 6.28864H10.0976V9.70773H11.9943V4.66504Z" fill="black"/>
<path fill-rule="evenodd" clip-rule="evenodd" d="M14.4896 13.8451C14.4896 15.7726 12.9274 17.3348 10.9999 17.3348C9.07247 17.3348 7.51025 15.7726 7.51025 13.8451C7.51025 11.9177 9.07247 10.3555 10.9999 10.3555C12.9274 10.3555 14.4896 11.9177 14.4896 13.8451ZM12.9059 13.8451C12.9059 14.8979 12.0527 15.7511 10.9999 15.7511C9.9472 15.7511 9.09396 14.8979 9.09396 13.8451C9.09396 12.7924 9.9472 11.9392 10.9999 11.9392C12.0527 11.9392 12.9059 12.7924 12.9059 13.8451Z" fill="black"/>
</g>
<defs>
<clipPath id="clip0_273_30746">
<rect width="22" height="22" rx="4" fill="white"/>
</clipPath>
</defs>
</svg>
