<svg width="22" height="22" viewBox="0 0 22 22" fill="none" xmlns="http://www.w3.org/2000/svg">
<g clip-path="url(#clip0_357_4714)">
<path d="M0 4C0 1.79086 1.79086 0 4 0H18C20.2091 0 22 1.79086 22 4V18C22 20.2091 20.2091 22 18 22H4C1.79086 22 0 20.2091 0 18V4Z" fill="#D5FF5C"/>
<path fill-rule="evenodd" clip-rule="evenodd" d="M15.8614 11.9822C16.0248 12.3381 16.5057 12.4638 16.7807 12.1873L17.2883 11.6805C17.5421 11.4405 17.8796 11.3091 18.2288 11.314C18.5781 11.3189 18.9117 11.4597 19.1588 11.7067C19.4058 11.9536 19.5469 12.2872 19.5519 12.6365C19.5569 12.9857 19.4256 13.3232 19.1858 13.5772L15.0883 17.6747C14.5851 18.2737 13.9567 18.7552 13.2475 19.0854C12.5382 19.4155 11.7652 19.5862 10.9829 19.5856C10.1673 19.5862 9.36229 19.4006 8.62931 19.0429C7.89632 18.6852 7.25471 18.1648 6.7534 17.5215L2.80912 13.5772C2.55749 13.3257 2.41609 12.9845 2.41602 12.6287C2.41594 12.2729 2.5572 11.9317 2.80872 11.6801C3.06024 11.4285 3.40142 11.2871 3.7572 11.287C4.11297 11.2869 4.45421 11.4282 4.70583 11.6797L5.20476 12.1786C5.47504 12.4497 5.9449 12.3279 6.1044 11.9798C6.13616 11.9117 6.15278 11.8374 6.15312 11.7622V5.63362C6.15312 5.27781 6.29446 4.93656 6.54606 4.68496C6.79766 4.43336 7.13891 4.29202 7.49472 4.29202C7.85054 4.29202 8.19178 4.43336 8.44338 4.68496C8.69498 4.93656 8.83633 5.27781 8.83633 5.63362V8.73405C8.83633 9.00119 9.10976 9.18191 9.36355 9.10176C9.44281 9.07797 9.51246 9.0296 9.56245 8.96366C9.61244 8.89771 9.64019 8.81758 9.64169 8.73484V3.75577C9.64169 3.40005 9.78299 3.05891 10.0345 2.80738C10.286 2.55586 10.6272 2.41455 10.9829 2.41455C11.3386 2.41455 11.6798 2.55586 11.9313 2.80738C12.1828 3.05891 12.3241 3.40005 12.3241 3.75577V8.73562C12.3241 8.90534 12.4404 9.05148 12.6015 9.10176C12.8553 9.18269 13.1287 9.00119 13.1287 8.73484V5.63362C13.1287 5.27781 13.27 4.93656 13.5216 4.68496C13.7732 4.43336 14.1145 4.29202 14.4703 4.29202C14.8261 4.29202 15.1674 4.43336 15.419 4.68496C15.6706 4.93656 15.8119 5.27781 15.8119 5.63362V11.7598C15.8119 11.8368 15.8292 11.9123 15.8614 11.9822Z" fill="#FD4848"/>
<path d="M15.2742 14.7557C15.2742 14.7557 13.3523 17.4389 10.9818 17.4389C8.61131 17.4389 6.68945 14.7557 6.68945 14.7557C6.68945 14.7557 8.61131 12.0732 10.9818 12.0732C13.3523 12.0732 15.2742 14.7557 15.2742 14.7557Z" fill="#D5FF5C"/>
<path d="M12.9924 14.7556C12.9999 15.0244 12.9534 15.2921 12.8557 15.5427C12.758 15.7933 12.6111 16.0218 12.4236 16.2146C12.236 16.4075 12.0118 16.5607 11.764 16.6654C11.5162 16.7701 11.2499 16.824 10.981 16.824C10.712 16.824 10.4457 16.7701 10.198 16.6654C9.95017 16.5607 9.72589 16.4075 9.53837 16.2146C9.35085 16.0218 9.20389 15.7933 9.10619 15.5427C9.00849 15.2921 8.96202 15.0244 8.96954 14.7556C8.96954 14.2221 9.18145 13.7105 9.55867 13.3333C9.93589 12.9561 10.4475 12.7441 10.981 12.7441C11.5144 12.7441 12.026 12.9561 12.4033 13.3333C12.7805 13.7105 12.9924 14.2221 12.9924 14.7556Z" stroke="#FD4848" stroke-width="1.003"/>
<path d="M12.1892 14.7557C12.1922 14.9964 12.1233 15.2325 11.9912 15.4337C11.8591 15.635 11.6699 15.7922 11.4479 15.8852C11.2259 15.9782 10.9812 16.0028 10.7451 15.9559C10.509 15.9089 10.2923 15.7925 10.1228 15.6215C10.0104 15.5075 9.92181 15.3722 9.86219 15.2235C9.80256 15.0749 9.77311 14.9158 9.77553 14.7557C9.77553 14.4356 9.90268 14.1286 10.129 13.9023C10.3553 13.676 10.6623 13.5488 10.9824 13.5488C11.3025 13.5488 11.6094 13.676 11.8358 13.9023C12.0621 14.1286 12.1892 14.4356 12.1892 14.7557Z" stroke="#FD4848" stroke-width="1.003"/>
<path d="M13.7996 14.7558C13.7996 15.5028 13.5028 16.2193 12.9746 16.7475C12.4463 17.2758 11.7299 17.5725 10.9828 17.5725C10.2357 17.5725 9.51928 17.2758 8.99103 16.7475C8.46278 16.2193 8.16602 15.5028 8.16602 14.7558C8.16602 14.0087 8.46278 13.2922 8.99103 12.764C9.51928 12.2357 10.2357 11.939 10.9828 11.939C11.7299 11.939 12.4463 12.2357 12.9746 12.764C13.5028 13.2922 13.7996 14.0087 13.7996 14.7558Z" stroke="#FD4848" stroke-width="1.003"/>
<path d="M14.604 14.7556C14.604 15.7161 14.2225 16.6372 13.5434 17.3163C12.8642 17.9955 11.9431 18.377 10.9827 18.377C10.0222 18.377 9.10114 17.9955 8.422 17.3163C7.74286 16.6372 7.36133 15.7161 7.36133 14.7556C7.36133 13.7952 7.74286 12.8741 8.422 12.1949C9.10114 11.5158 10.0222 11.1343 10.9827 11.1343C11.9431 11.1343 12.8642 11.5158 13.5434 12.1949C14.2225 12.8741 14.604 13.7952 14.604 14.7556Z" stroke="#FD4848" stroke-width="1.003"/>
<path d="M11.3849 14.7559C11.3865 14.8097 11.3774 14.8633 11.3579 14.9135C11.3384 14.9637 11.309 15.0094 11.2715 15.048C11.2339 15.0866 11.189 15.1172 11.1394 15.138C11.0897 15.1588 11.0364 15.1694 10.9826 15.1692C10.9037 15.169 10.8266 15.1456 10.761 15.1019C10.6954 15.0582 10.644 14.9961 10.6135 14.9234C10.5829 14.8507 10.5744 14.7706 10.589 14.6931C10.6037 14.6156 10.6408 14.5442 10.6958 14.4877C10.7508 14.4311 10.8213 14.3921 10.8983 14.3754C10.9754 14.3586 11.0557 14.365 11.1292 14.3936C11.2027 14.4222 11.2661 14.4718 11.3116 14.5362C11.3571 14.6007 11.3825 14.6771 11.3849 14.7559Z" fill="#FD4848" stroke="#FD4848" stroke-width="1.003"/>
<path d="M6.88257 14.7886C6.87415 14.7779 6.86577 14.7671 6.85742 14.7564L6.88257 14.7234C7.22828 14.2857 7.61328 13.8819 8.03442 13.5165C8.80285 12.8526 9.84549 12.2075 10.9816 12.2075C12.1186 12.2075 13.1604 12.8526 13.9296 13.5165C14.35 13.8819 14.7358 14.2865 15.0815 14.7234L15.1066 14.7556C14.755 15.2057 14.3608 15.6209 13.9296 15.9954C13.1604 16.6594 12.1186 17.3044 10.9816 17.3044C9.84549 17.3044 8.80285 16.6594 8.03521 15.9954C7.61406 15.6301 7.22815 15.2261 6.88257 14.7886Z" stroke="#D5FF5C" stroke-width="1.003"/>
</g>
<defs>
<clipPath id="clip0_357_4714">
<rect width="22" height="22" fill="white"/>
</clipPath>
</defs>
</svg>
