<svg width="22" height="22" viewBox="0 0 22 22" fill="none" xmlns="http://www.w3.org/2000/svg">
<g clip-path="url(#clip0_273_30734)">
<path d="M0 0H22V22H0V0Z" fill="url(#paint0_linear_273_30734)"/>
<path d="M11.1516 16.2587C7.66697 16.5526 4.43611 14.5113 4.18233 11.3401C3.94818 8.72686 5.61626 7.60172 6.93547 7.50194C7.52369 7.41658 8.12202 7.56379 8.60347 7.91234C9.08493 8.26089 9.41161 8.78333 9.51418 9.36879C9.60847 10.4099 8.93118 10.9025 8.45897 10.9371C8.2555 10.9646 8.04928 10.912 7.8839 10.7903C7.71852 10.6686 7.60692 10.4874 7.57268 10.2849C7.53811 9.88186 7.70233 9.82686 7.65204 9.40415C7.63986 9.2733 7.59981 9.14656 7.53458 9.03247C7.46936 8.91838 7.38047 8.81957 7.27388 8.74269C7.1673 8.6658 7.04549 8.61262 6.91665 8.58672C6.78781 8.56081 6.65491 8.56279 6.5269 8.59251C6.07904 8.62708 5.25247 9.14486 5.35697 10.4248C5.46226 11.7039 6.75083 12.7348 8.42361 12.58C9.28909 12.5169 10.0981 12.1267 10.6862 11.4887C11.2744 10.8506 11.5975 10.0126 11.59 9.14486C11.59 9.04429 11.6136 8.94529 11.6592 8.85651C11.6804 8.82194 11.704 8.78815 11.7299 8.75672C11.7739 8.68679 11.8258 8.62158 11.8839 8.56265L12.0481 8.39765C12.8338 7.68186 15.6915 5.95879 18.3747 6.49622C18.3942 6.49072 18.4149 6.49072 18.4344 6.49622C18.5389 6.49622 18.5994 6.56694 18.6088 6.67065C19.0323 12.9532 14.8806 15.9303 11.1524 16.2587H11.1516Z" fill="white"/>
</g>
<defs>
<linearGradient id="paint0_linear_273_30734" x1="21.3997" y1="0.6985" x2="0.0392856" y2="21.9827" gradientUnits="userSpaceOnUse">
<stop stop-color="#11C4D1"/>
<stop offset="1" stop-color="#0062AD"/>
</linearGradient>
<clipPath id="clip0_273_30734">
<rect width="22" height="22" rx="4" fill="white"/>
</clipPath>
</defs>
</svg>
