<svg width="22" height="22" viewBox="0 0 22 22" fill="none" xmlns="http://www.w3.org/2000/svg">
<path d="M0 0H22V22H0V0Z" fill="white"/>
<mask id="mask0_273_30594" style="mask-type:luminance" maskUnits="userSpaceOnUse" x="0" y="0" width="22" height="22">
<path d="M0 0H22V22H0V0Z" fill="white"/>
</mask>
<g mask="url(#mask0_273_30594)">
<path d="M0 17.6882H22V22.0002H0V17.6882ZM11 12.1324C10.2861 12.1319 9.59118 11.9019 9.01789 11.4764C8.4446 11.0509 8.02325 10.4524 7.816 9.76917C7.60875 9.08596 7.62658 8.35424 7.86684 7.68194C8.10711 7.00963 8.5571 6.43236 9.15043 6.03526C9.69798 5.6697 10.3416 5.47475 11 5.47505V2.75098C10.1052 2.7513 9.22161 2.94995 8.41277 3.33262C7.60394 3.7153 6.88998 4.2725 6.32225 4.96412C5.75453 5.65574 5.34715 6.4646 5.12944 7.3325C4.91173 8.20041 4.88908 9.10578 5.06314 9.98348C5.29669 11.1575 5.87323 12.2359 6.7198 13.0822C7.56638 13.9285 8.64496 14.5047 9.81907 14.7378C10.6968 14.9123 11.6022 14.89 12.4703 14.6725C13.3383 14.4551 14.1474 14.0479 14.8392 13.4803C15.531 12.9127 16.0884 12.1988 16.4712 11.3899C16.854 10.5811 17.0528 9.69742 17.0531 8.80255H14.3267C14.3273 9.2397 14.2417 9.67269 14.0748 10.0767C13.9079 10.4807 13.6629 10.8479 13.3539 11.1571C13.0449 11.4663 12.6779 11.7116 12.274 11.8788C11.8701 12.046 11.4372 12.1319 11 12.1316V12.1324Z" fill="#0255EB"/>
<path d="M14.3291 5.47412H11V8.80241H14.3291V5.47412Z" fill="#00E697"/>
<path d="M21.9976 17.187C18.6969 16.3958 14.9616 15.9487 10.9984 15.9487C7.03529 15.9487 3.30079 16.3958 7.15392e-08 17.187V17.682C-0.000103143 18.2489 0.111482 18.8103 0.32838 19.3341C0.545279 19.8578 0.863242 20.3338 1.26411 20.7346C1.66497 21.1355 2.14088 21.4535 2.66466 21.6703C3.18843 21.8872 3.74981 21.9988 4.31671 21.9987H17.6833C18.8279 21.9985 19.9257 21.5438 20.7352 20.7344C21.5446 19.9251 21.9996 18.8275 22 17.6828L21.9976 17.187Z" fill="url(#paint0_linear_273_30594)"/>
<path d="M21.9976 17.6851C18.7212 16.8585 14.9773 16.3887 10.9984 16.3887C7.02036 16.3887 3.27564 16.8585 0 17.6851C0.000103172 18.2519 0.11184 18.8131 0.328831 19.3367C0.545822 19.8603 0.863818 20.336 1.26466 20.7367C1.66551 21.1374 2.14135 21.4552 2.66502 21.672C3.18869 21.8888 3.74994 22.0003 4.31671 22.0002H17.6833C18.2501 22.0003 18.8114 21.8888 19.3352 21.6719C19.8589 21.4551 20.3348 21.1372 20.7356 20.7364C21.1365 20.3356 21.4544 19.8598 21.6714 19.3361C21.8883 18.8124 22 18.2512 22 17.6843L21.9976 17.6851Z" fill="#0255EB"/>
<path d="M8.62482 20.2608H8.04339L7.59082 18.247L7.12882 20.2608H6.54739L6.03589 17.9492H6.43503L6.84517 19.8915L7.30325 17.95H7.88153L8.32782 19.8844L8.7356 17.95H9.14182L8.62482 20.2608ZM11.0087 18.5086V20.2576H10.6292V20.0227C10.5571 20.1054 10.4683 20.1717 10.3685 20.2172C10.2688 20.2627 10.1605 20.2864 10.0509 20.2867C9.89846 20.2875 9.74839 20.2451 9.61875 20.1641C9.41813 20.0381 9.27342 19.84 9.21438 19.6106C9.15533 19.3811 9.18645 19.1378 9.30132 18.9306C9.37596 18.7954 9.48439 18.6823 9.61639 18.6021C9.74682 18.522 9.8961 18.4804 10.0485 18.4811C10.1599 18.4802 10.27 18.5044 10.3707 18.5519C10.4681 18.5974 10.5553 18.6619 10.6268 18.7412V18.5071L11.0087 18.5086ZM10.3722 19.8664C10.4562 19.8186 10.5258 19.7492 10.5737 19.6652C10.6215 19.5813 10.6458 19.486 10.6441 19.3894C10.6468 19.2663 10.6082 19.1457 10.5344 19.047C10.4607 18.9483 10.3561 18.8771 10.2372 18.8447C10.1184 18.8122 9.99209 18.8205 9.87846 18.8681C9.76482 18.9157 9.67037 18.9999 9.6101 19.1074C9.53628 19.2346 9.51583 19.3858 9.55323 19.5281C9.59063 19.6703 9.68283 19.7919 9.80967 19.8664C9.89466 19.9148 9.99079 19.9403 10.0886 19.9403C10.1864 19.9403 10.2825 19.9148 10.3675 19.8664H10.3715H10.3722ZM11.3756 20.2608V17.9492H11.7551V20.2608H11.3756ZM12.1181 20.2608V17.9492H12.4984V20.2608H12.1181ZM14.1586 18.6021C14.3167 18.6925 14.4435 18.8289 14.5221 18.9931C14.6007 19.1573 14.6274 19.3416 14.5986 19.5214H13.1788C13.193 19.6008 13.2244 19.6762 13.2707 19.743C13.3218 19.8095 13.388 19.8627 13.4639 19.8983C13.5398 19.9338 13.6231 19.9506 13.7068 19.9473C13.805 19.9473 13.9017 19.9245 13.9897 19.8813C14.0682 19.8459 14.139 19.7949 14.1971 19.7296L14.531 19.8216C14.4569 19.9637 14.3401 20.0791 14.1971 20.1516C14.0462 20.238 13.875 20.2844 13.7021 20.2851C13.4627 20.2833 13.2336 20.1873 13.0644 20.0179C12.8952 19.8486 12.7994 19.6194 12.7977 19.38C12.7973 19.2215 12.8389 19.0657 12.9182 18.9285C12.9976 18.7913 13.1119 18.6776 13.2495 18.599C13.3871 18.5198 13.543 18.4781 13.7017 18.4781C13.8604 18.4781 14.0164 18.5198 14.1539 18.599L14.1586 18.6021ZM13.4774 18.8811C13.4052 18.9143 13.3409 18.9625 13.2888 19.0225C13.2381 19.0823 13.2025 19.1535 13.1851 19.2299H14.2387C14.2193 19.1534 14.1828 19.0822 14.1319 19.0217C14.081 18.9613 14.0171 18.9132 13.9449 18.8811C13.8719 18.8462 13.792 18.8281 13.7111 18.8281C13.6302 18.8281 13.5504 18.8462 13.4774 18.8811ZM15.0905 18.0922H15.4629V18.511H16.0019V18.8449H15.4629V19.6636C15.4629 19.71 15.4755 19.7556 15.4998 19.7949C15.5234 19.8341 15.5572 19.8679 15.5972 19.8915C15.6377 19.9154 15.6838 19.9279 15.7308 19.9276H16.0184V20.2608H15.6515C15.5017 20.2604 15.3582 20.2006 15.2525 20.0945C15.1467 19.9885 15.0873 19.8448 15.0873 19.6951V18.8465H14.7573V18.5126H15.0873L15.0905 18.0922Z" fill="white"/>
</g>
<defs>
<linearGradient id="paint0_linear_273_30594" x1="-14.9231" y1="18.9737" x2="37.8848" y2="18.9737" gradientUnits="userSpaceOnUse">
<stop offset="0.25" stop-color="white"/>
<stop offset="0.5" stop-color="#00E79D"/>
<stop offset="0.75" stop-color="white"/>
</linearGradient>
</defs>
</svg>
