<svg width="22" height="22" viewBox="0 0 22 22" fill="none" xmlns="http://www.w3.org/2000/svg">
<g clip-path="url(#clip0_357_4726)">
<path d="M21.9901 0H0V22H21.9901V0Z" fill="#2980FE"/>
<path d="M8.95312 9.44918H8.96342C8.95312 9.42436 8.95312 9.39542 8.95312 9.37061V9.44918Z" fill="#29AEFF"/>
<path d="M14.295 9.9585H11.3242V15.5561C11.3242 15.8206 11.5291 16.0345 11.7825 16.0345H13.8367C14.0901 16.0345 14.295 15.8206 14.295 15.5561V9.9585Z" fill="white"/>
<path d="M9.89055 5.95117H9.7908H4.47197C4.21855 5.95117 4.01367 6.16505 4.01367 6.42961V8.37145C4.01367 8.63601 4.21855 8.84989 4.47197 8.84989H5.72012H6.21616V9.42399V15.5704C6.21616 15.835 6.42104 16.0488 6.67444 16.0488H8.62622C8.87962 16.0488 9.0845 15.835 9.0845 15.5704V9.42399V9.37054V8.84989H9.58054H9.78271H9.88246C10.6481 8.84989 11.2708 8.19979 11.2708 7.40053C11.2789 6.60127 10.6562 5.95117 9.89055 5.95117Z" fill="white"/>
<path d="M14.2988 9.9585V13.8647C14.4013 13.8901 14.5064 13.9098 14.6142 13.9266C14.7652 13.9492 14.9216 13.9632 15.0779 13.966C15.086 13.966 15.0941 13.966 15.1049 13.966V10.8591C14.6547 10.8281 14.2988 10.4369 14.2988 9.9585Z" fill="url(#paint0_linear_357_4726)"/>
<path d="M15.163 5.95117C13.0441 5.95117 11.3242 7.74669 11.3242 9.95872C11.3242 11.8612 12.5939 13.4541 14.2977 13.8649V9.95872C14.2977 9.46058 14.6859 9.05532 15.163 9.05532C15.6402 9.05532 16.0284 9.46058 16.0284 9.95872C16.0284 10.378 15.7561 10.7298 15.3841 10.8311C15.314 10.8508 15.2385 10.8621 15.163 10.8621V13.9663C15.2385 13.9663 15.3113 13.9634 15.3841 13.9606C17.4006 13.8396 19.0019 12.0948 19.0019 9.95872C19.0046 7.74669 17.2847 5.95117 15.163 5.95117Z" fill="white"/>
<path d="M15.1801 13.9664V10.8622C15.1528 10.8622 15.1289 10.8622 15.1016 10.8594V13.9664C15.1289 13.9664 15.1562 13.9664 15.1801 13.9664Z" fill="white"/>
</g>
<defs>
<linearGradient id="paint0_linear_357_4726" x1="100.959" y1="210.395" x2="14.3359" y2="210.395" gradientUnits="userSpaceOnUse">
<stop stop-color="white"/>
<stop offset="0.9667" stop-color="white" stop-opacity="0.3233"/>
<stop offset="1" stop-color="white" stop-opacity="0.3"/>
</linearGradient>
<clipPath id="clip0_357_4726">
<rect width="22" height="22" rx="4" fill="white"/>
</clipPath>
</defs>
</svg>
