<svg width="22" height="22" viewBox="0 0 22 22" fill="none" xmlns="http://www.w3.org/2000/svg">
<g clip-path="url(#clip0_357_4752)">
<path d="M0 0H22V22H0V0Z" fill="url(#paint0_linear_357_4752)"/>
<path d="M18.334 6.9665H17.234C11.5639 6.9665 6.96732 11.5631 6.96732 17.2332V18.3332H4.76732C4.15981 18.3332 3.66732 17.8407 3.66732 17.2332C3.66732 9.7405 9.74132 3.6665 17.234 3.6665C17.8415 3.6665 18.334 4.15899 18.334 4.7665V6.9665Z" fill="url(#paint1_radial_357_4752)"/>
<path d="M6.59961 17.2334H3.66628C3.66628 17.8409 4.15876 18.3334 4.76628 18.3334H6.59961V17.2334Z" fill="url(#paint2_linear_357_4752)"/>
<path d="M17.234 3.6665V6.59984H18.334V4.7665C18.334 4.15899 17.8415 3.6665 17.234 3.6665Z" fill="url(#paint3_linear_357_4752)"/>
<path d="M18.334 6.6001H17.234C11.3614 6.6001 6.60065 11.3608 6.60065 17.2334V18.3334H9.90065V17.2334C9.90065 13.1833 13.1839 9.9001 17.234 9.9001H18.334V6.6001Z" fill="url(#paint4_radial_357_4752)"/>
<path d="M9.5332 17.2334H6.59987V18.3334H9.5332V17.2334Z" fill="url(#paint5_linear_357_4752)"/>
<path d="M18.334 9.53343V6.6001H17.234V9.53343H18.334Z" fill="url(#paint6_linear_357_4752)"/>
<path d="M18.334 11.3665C18.334 11.974 17.8415 12.4665 17.234 12.4665C14.6014 12.4665 12.4673 14.6006 12.4673 17.2332C12.4673 17.8407 11.9748 18.3332 11.3673 18.3332H9.53398V17.2332C9.53398 12.9806 12.9814 9.5332 17.234 9.5332H18.334V11.3665Z" fill="url(#paint7_radial_357_4752)"/>
<path d="M12.4668 17.2334H9.53346V18.3334H11.3668C11.9743 18.3334 12.4668 17.8409 12.4668 17.2334Z" fill="url(#paint8_radial_357_4752)"/>
<path d="M17.234 12.4665C17.8415 12.4665 18.334 11.974 18.334 11.3665V9.5332H17.234V12.4665Z" fill="url(#paint9_radial_357_4752)"/>
</g>
<defs>
<linearGradient id="paint0_linear_357_4752" x1="11" y1="0" x2="11" y2="22" gradientUnits="userSpaceOnUse">
<stop stop-color="#174299"/>
<stop offset="1" stop-color="#001E59"/>
</linearGradient>
<radialGradient id="paint1_radial_357_4752" cx="0" cy="0" r="1" gradientUnits="userSpaceOnUse" gradientTransform="translate(17.234 17.2332) rotate(-90) scale(13.5667)">
<stop offset="0.770277" stop-color="#FF4000"/>
<stop offset="1" stop-color="#8754C9"/>
</radialGradient>
<linearGradient id="paint2_linear_357_4752" x1="6.78294" y1="17.7834" x2="3.66628" y2="17.7834" gradientUnits="userSpaceOnUse">
<stop stop-color="#FF4000"/>
<stop offset="1" stop-color="#8754C9"/>
</linearGradient>
<linearGradient id="paint3_linear_357_4752" x1="17.784" y1="3.6665" x2="17.784" y2="6.78317" gradientUnits="userSpaceOnUse">
<stop stop-color="#8754C9"/>
<stop offset="1" stop-color="#FF4000"/>
</linearGradient>
<radialGradient id="paint4_radial_357_4752" cx="0" cy="0" r="1" gradientUnits="userSpaceOnUse" gradientTransform="translate(17.234 17.2334) rotate(-90) scale(10.6333)">
<stop offset="0.723929" stop-color="#FFF700"/>
<stop offset="1" stop-color="#FF9901"/>
</radialGradient>
<linearGradient id="paint5_linear_357_4752" x1="9.5332" y1="17.7834" x2="6.59987" y2="17.7834" gradientUnits="userSpaceOnUse">
<stop stop-color="#FFF700"/>
<stop offset="1" stop-color="#FF9901"/>
</linearGradient>
<linearGradient id="paint6_linear_357_4752" x1="17.784" y1="9.53343" x2="17.784" y2="6.6001" gradientUnits="userSpaceOnUse">
<stop stop-color="#FFF700"/>
<stop offset="1" stop-color="#FF9901"/>
</linearGradient>
<radialGradient id="paint7_radial_357_4752" cx="0" cy="0" r="1" gradientUnits="userSpaceOnUse" gradientTransform="translate(17.234 17.2332) rotate(-90) scale(7.7)">
<stop offset="0.59513" stop-color="#00AAFF"/>
<stop offset="1" stop-color="#01DA40"/>
</radialGradient>
<radialGradient id="paint8_radial_357_4752" cx="0" cy="0" r="1" gradientUnits="userSpaceOnUse" gradientTransform="translate(12.6501 17.7834) rotate(180) scale(3.11667 8.31111)">
<stop stop-color="#00AAFF"/>
<stop offset="1" stop-color="#01DA40"/>
</radialGradient>
<radialGradient id="paint9_radial_357_4752" cx="0" cy="0" r="1" gradientUnits="userSpaceOnUse" gradientTransform="translate(17.784 12.6499) rotate(-90) scale(3.11667 59.1012)">
<stop stop-color="#00AAFF"/>
<stop offset="1" stop-color="#01DA40"/>
</radialGradient>
<clipPath id="clip0_357_4752">
<rect width="22" height="22" rx="4" transform="matrix(-1 0 0 1 22 0)" fill="white"/>
</clipPath>
</defs>
</svg>
