<svg width="22" height="22" viewBox="0 0 22 22" fill="none" xmlns="http://www.w3.org/2000/svg">
<mask id="mask0_357_4766" style="mask-type:luminance" maskUnits="userSpaceOnUse" x="0" y="0" width="22" height="22">
<path d="M0 0H22V22H0V0Z" fill="white"/>
</mask>
<g mask="url(#mask0_357_4766)">
<path d="M0 0H22V22H0V0Z" fill="#335DE5"/>
<mask id="mask1_357_4766" style="mask-type:luminance" maskUnits="userSpaceOnUse" x="0" y="0" width="22" height="22">
<path d="M22 0H0V22H22V0Z" fill="white"/>
</mask>
<g mask="url(#mask1_357_4766)">
<path d="M17.5316 6.90984e-08H4.46914C3.88222 -0.000103145 3.30102 0.115424 2.75875 0.339983C2.21649 0.564542 1.72377 0.893733 1.30875 1.30875C0.893733 1.72377 0.564542 2.21649 0.339983 2.75875C0.115424 3.30102 -0.000103145 3.88222 6.90984e-08 4.46914V17.5316C0.00020843 18.7168 0.471155 19.8533 1.30926 20.6913C2.14736 21.5293 3.28399 22 4.46914 22H17.5316C18.7168 21.9998 19.8533 21.5288 20.6913 20.6907C21.5293 19.8526 22 18.716 22 17.5309V4.46914C22 3.28385 21.5291 2.14711 20.691 1.30898C19.8529 0.470855 18.7169 6.90984e-08 17.5316 6.90984e-08Z" fill="#335DE5"/>
<path d="M19.9124 10.3658C19.7964 8.81119 19.2725 7.31464 18.3936 6.02711C17.5083 4.73112 16.3012 3.68759 14.8909 2.99897C13.4736 2.30589 11.9021 1.98824 10.3269 2.07642C8.75169 2.16461 7.2255 2.65567 5.89443 3.50261C4.57336 4.34444 3.49469 5.51626 2.76493 6.90239L2.73036 6.97154C2.50105 7.43804 2.34597 7.93748 2.27071 8.45182C2.05621 9.96982 2.38857 11.3205 3.25836 12.3608C4.20907 13.4977 5.75693 14.1742 7.61436 14.263C9.87564 14.3753 12.1236 13.768 13.7194 12.6523L14.6646 13.2062C13.761 13.977 11.6718 15.3653 8.2115 15.5555C4.32771 15.7668 2.70914 14.523 2.69343 14.5105L2.42157 14.8413L2.0625 15.2655C2.13164 15.3229 3.68343 16.5573 7.32914 16.5573C7.62771 16.5573 7.942 16.5573 8.26807 16.5321C12.4559 16.3019 14.7581 14.505 15.565 13.7342L16.3554 14.2072C15.8217 14.8972 15.1671 15.4845 14.4234 15.9405C11.7951 17.6109 8.45193 17.8262 6.11207 17.7099L6.06257 18.6842C6.45543 18.703 6.83336 18.7117 7.20107 18.7117C13.7948 18.7117 16.4631 15.7574 17.2111 14.6975L17.8286 15.0597C17.2323 16.0582 16.4262 16.9153 15.466 17.5716C14.3064 18.3639 12.9624 18.8444 11.5634 18.967L11.6498 19.9374C13.2203 19.8003 14.7291 19.2613 16.0309 18.3722C17.3248 17.4896 18.3656 16.2844 19.0504 14.8758C19.7303 13.4747 20.0271 11.9189 19.9124 10.3658ZM16.104 10.5159C16.0008 10.5167 15.8984 10.4972 15.8027 10.4584C15.707 10.4197 15.6198 10.3624 15.5463 10.2899C15.4727 10.2175 15.4142 10.1312 15.374 10.0361C15.3338 9.94102 15.3127 9.83893 15.312 9.73568C15.3128 9.6325 15.334 9.53049 15.3742 9.43547C15.4145 9.34046 15.473 9.25431 15.5466 9.18193C15.6201 9.10955 15.7072 9.05237 15.8028 9.01365C15.8985 8.97493 16.0008 8.95542 16.104 8.95625C16.2072 8.95532 16.3097 8.97475 16.4054 9.01342C16.5011 9.0521 16.5883 9.10926 16.6619 9.18165C16.7356 9.25404 16.7942 9.34023 16.8345 9.43529C16.8748 9.53036 16.896 9.63243 16.8968 9.73568C16.8961 9.839 16.875 9.94115 16.8347 10.0363C16.7945 10.1315 16.7359 10.2177 16.6622 10.2902C16.5886 10.3627 16.5014 10.4199 16.4056 10.4586C16.3098 10.4974 16.2073 10.5168 16.104 10.5159Z" fill="#ECECEC"/>
</g>
</g>
</svg>
