<svg width="22" height="22" viewBox="0 0 22 22" fill="none" xmlns="http://www.w3.org/2000/svg">
<g clip-path="url(#clip0_273_30647)">
<path d="M22 0H0V22H22V0Z" fill="#2C5FF6"/>
<path fill-rule="evenodd" clip-rule="evenodd" d="M11 18.6998C15.2526 18.6998 18.7 15.2524 18.7 10.9998C18.7 6.74721 15.2526 3.2998 11 3.2998C6.74746 3.2998 3.30005 6.74721 3.30005 10.9998C3.30005 15.2524 6.74746 18.6998 11 18.6998ZM9.07505 8.48552C8.74961 8.48552 8.48576 8.74936 8.48576 9.0748V12.9248C8.48576 13.2502 8.74961 13.5141 9.07505 13.5141H12.925C13.2505 13.5141 13.5143 13.2502 13.5143 12.9248V9.0748C13.5143 8.74936 13.2505 8.48552 12.925 8.48552H9.07505Z" fill="white"/>
</g>
<defs>
<clipPath id="clip0_273_30647">
<rect width="22" height="22" rx="4" fill="white"/>
</clipPath>
</defs>
</svg>
