<svg width="22" height="22" viewBox="0 0 22 22" fill="none" xmlns="http://www.w3.org/2000/svg">
<g clip-path="url(#clip0_357_4785)">
<path d="M0 0H22V22H0V0Z" fill="white"/>
<path d="M16.1069 4.71436H5.89258C4.3738 4.71436 3.14258 5.94557 3.14258 7.46436V14.5358C3.14258 16.0546 4.3738 17.2858 5.89258 17.2858H16.1069C17.6256 17.2858 18.8569 16.0546 18.8569 14.5358V7.46436C18.8569 5.94557 17.6256 4.71436 16.1069 4.71436Z" fill="url(#paint0_linear_357_4785)"/>
<path d="M12.5723 11.0002C12.5723 10.3751 12.8206 9.77551 13.2627 9.33346C13.7047 8.89141 14.3043 8.64307 14.9294 8.64307H18.3866C18.8266 8.64307 19.0466 8.64307 19.2147 8.72871C19.3625 8.80404 19.4827 8.92423 19.5581 9.07207C19.6437 9.24021 19.6437 9.46021 19.6437 9.90021V12.1002C19.6437 12.5402 19.6437 12.7602 19.5581 12.9284C19.4827 13.0762 19.3625 13.1964 19.2147 13.2717C19.0466 13.3574 18.8266 13.3574 18.3866 13.3574H14.9294C14.3043 13.3574 13.7047 13.109 13.2627 12.667C12.8206 12.2249 12.5723 11.6254 12.5723 11.0002Z" fill="#0E76FD"/>
<path d="M14.9294 11.9824C15.4718 11.9824 15.9116 11.5426 15.9116 11.0002C15.9116 10.4578 15.4718 10.0181 14.9294 10.0181C14.387 10.0181 13.9473 10.4578 13.9473 11.0002C13.9473 11.5426 14.387 11.9824 14.9294 11.9824Z" fill="#A3D7FF"/>
</g>
<defs>
<linearGradient id="paint0_linear_357_4785" x1="10.9997" y1="4.71436" x2="10.9997" y2="17.2858" gradientUnits="userSpaceOnUse">
<stop stop-color="#174299"/>
<stop offset="1" stop-color="#001E59"/>
</linearGradient>
<clipPath id="clip0_357_4785">
<rect width="22" height="22" rx="4" fill="white"/>
</clipPath>
</defs>
</svg>
