<svg width="22" height="22" viewBox="0 0 22 22" fill="none" xmlns="http://www.w3.org/2000/svg">
<g clip-path="url(#clip0_273_30710)">
<path d="M22 0H0V22H22V0Z" fill="white"/>
<path fill-rule="evenodd" clip-rule="evenodd" d="M4.61886 4.61874C5.14158 4.09601 5.85053 3.80236 6.58976 3.80236L18.287 3.80225V5.94089C18.287 6.47226 18.0759 6.98184 17.7003 7.35756C17.3245 7.73326 16.8149 7.94437 16.2836 7.94437H10.7839C10.0447 7.94437 9.3358 8.23799 8.81306 8.76072C8.29033 9.28346 7.9967 9.99233 7.9967 10.7316V11.441C7.9967 12.1802 8.29033 12.8891 8.81306 13.4118C9.3358 13.9345 10.0447 14.2281 10.7839 14.2281H16.2836C16.8149 14.2281 17.3245 14.4392 17.7003 14.815C18.0759 15.1907 18.287 15.7002 18.287 16.2316V18.287H6.58976C5.85053 18.287 5.14158 17.9933 4.61886 17.4706C4.09615 16.9479 3.80249 16.2389 3.80249 15.4996V6.58961C3.80249 5.85039 4.09615 5.14145 4.61886 4.61874ZM10.9044 9.11005H16.545C17.5071 9.11005 18.287 9.88995 18.287 10.8521V11.3207C18.287 12.2828 17.5071 13.0627 16.545 13.0627H10.9044C9.94229 13.0627 9.16239 12.2828 9.16239 11.3207V10.8521C9.16239 9.88995 9.94229 9.11005 10.9044 9.11005Z" fill="url(#paint0_linear_273_30710)"/>
</g>
<defs>
<linearGradient id="paint0_linear_273_30710" x1="5.25835" y1="3.80225" x2="15.419" y2="18.958" gradientUnits="userSpaceOnUse">
<stop stop-color="#C549FF"/>
<stop offset="1" stop-color="#654BFF"/>
</linearGradient>
<clipPath id="clip0_273_30710">
<rect width="22" height="22" rx="4" fill="white"/>
</clipPath>
</defs>
</svg>
