<svg width="22" height="22" viewBox="0 0 22 22" fill="none" xmlns="http://www.w3.org/2000/svg">
<g clip-path="url(#clip0_273_30658)">
<mask id="mask0_273_30658" style="mask-type:luminance" maskUnits="userSpaceOnUse" x="0" y="0" width="22" height="22">
<path d="M22 0H0V22H22V0Z" fill="white"/>
</mask>
<g mask="url(#mask0_273_30658)">
<path d="M22 0H0V22H22V0Z" fill="url(#paint0_radial_273_30658)"/>
<path d="M5.41054 3.73918C5.24266 3.7255 5.11328 3.86951 5.11328 4.0489V6.53125C5.11328 6.93314 5.29104 7.37151 5.70848 7.50909L15.503 10.8057C15.8164 10.9111 16.2296 11.2055 15.8157 11.6108C16.1798 11.4079 16.8438 11.2475 16.8438 10.5448V8.73056C16.8438 7.8711 16.4406 7.54338 15.799 7.32153L5.4847 3.7552C5.45939 3.74614 5.43456 3.74115 5.4105 3.73917L5.41054 3.73918ZM11.1555 9.56626L8.59899 10.45C7.95743 10.6718 7.55421 11.0002 7.55421 11.8597V13.6739C7.55421 14.4368 8.16991 14.6294 8.58232 14.7399C8.16836 14.3346 8.5818 14.0403 8.89496 13.9349L15.4941 11.7139C15.7033 11.6435 15.7871 11.4744 15.7649 11.3252C15.7395 11.1537 15.5368 11.041 15.294 10.9593C13.9145 10.4949 11.1555 9.56626 11.1555 9.56626ZM13.2371 12.7161C13.2371 12.7161 10.5494 13.6208 9.20558 14.0731C9.01811 14.1361 8.77031 14.2608 8.73928 14.4493C8.71896 14.5729 8.77757 14.8064 9.00556 14.8831C10.5503 15.403 13.6399 16.4426 13.6399 16.4426C13.9532 16.548 14.3124 16.8818 13.8985 17.287C14.3109 17.1764 14.9813 16.9445 14.9813 16.1816V14.3667C14.9813 13.5073 14.5774 13.1795 13.9358 12.9577L13.2371 12.7161ZM9.62775 15.3239V17.7135C9.62775 18.0031 9.98499 18.2855 10.3012 18.2047L13.5493 17.3751C13.7907 17.3135 13.8243 17.0855 13.8056 16.9791C13.7725 16.7907 13.5616 16.6477 13.3767 16.5855L9.62775 15.3239Z" fill="white"/>
</g>
</g>
<defs>
<radialGradient id="paint0_radial_273_30658" cx="0" cy="0" r="1" gradientUnits="userSpaceOnUse" gradientTransform="translate(7.75775 8.08122) rotate(43.8972) scale(15.7452 15.7533)">
<stop stop-color="#435AE1" stop-opacity="0.996078"/>
<stop offset="1" stop-color="#3247C7"/>
</radialGradient>
<clipPath id="clip0_273_30658">
<rect width="22" height="22" rx="4" fill="white"/>
</clipPath>
</defs>
</svg>
