<svg width="22" height="22" viewBox="0 0 22 22" fill="none" xmlns="http://www.w3.org/2000/svg">
<mask id="mask0_273_30577" style="mask-type:luminance" maskUnits="userSpaceOnUse" x="0" y="0" width="22" height="22">
<path d="M0 0H22V22H0V0Z" fill="white"/>
</mask>
<g mask="url(#mask0_273_30577)">
<path d="M1.89351 6.70235C1.84675 6.54097 1.83376 6.37168 1.85535 6.20506C1.87693 6.03843 1.93263 5.87805 2.01897 5.73391C2.1053 5.58977 2.22042 5.46497 2.35714 5.36731C2.49385 5.26965 2.64923 5.20121 2.81358 5.16628L14.4029 2.70463C14.6701 2.64818 14.9484 2.68281 15.1937 2.80299C15.4389 2.92318 15.6368 3.12201 15.7559 3.36778L20.9612 14.1163L6.29351 21.8784L1.89351 6.70235Z" fill="url(#paint0_linear_273_30577)"/>
<path d="M2.04511 7.54051C1.99619 7.37119 1.98446 7.19329 2.01072 7.01901C2.03698 6.84473 2.10061 6.67819 2.19725 6.5308C2.2939 6.38341 2.42126 6.25866 2.57063 6.16509C2.71999 6.07153 2.88782 6.01137 3.06261 5.98873L18.4218 3.99694C18.7292 3.95713 19.0403 4.03561 19.2921 4.21649C19.5438 4.39737 19.7175 4.66715 19.7779 4.97123L21.9999 16.1952L6.17247 21.8169L2.04511 7.54051Z" fill="white"/>
<path d="M0 8.55569C0 7.9074 0.25753 7.28567 0.715936 6.82726C1.17434 6.36886 1.79607 6.11133 2.44436 6.11133H17.1113C18.4079 6.11133 19.6513 6.62639 20.5681 7.5432C21.4849 8.46001 22 9.70347 22 11V22H0V8.55569Z" fill="#131313"/>
<path d="M14.5547 15.2987V10.7188H15.4488V15.2995H14.5555L14.5547 15.2987Z" fill="#F7A600"/>
<path d="M4.36075 16.6657H2.4436V12.0857H4.28217C5.17553 12.0857 5.69646 12.587 5.69646 13.372C5.69646 13.8803 5.36175 14.2087 5.13075 14.318C5.40732 14.4468 5.76089 14.736 5.76089 15.3472C5.76089 16.2029 5.17553 16.6657 4.35917 16.6657M4.21068 12.8832H3.33775V13.9385H4.21146C4.59096 13.9385 4.8031 13.7263 4.8031 13.412C4.8031 13.0954 4.59018 12.8832 4.21068 12.8832ZM4.26882 14.743H3.33775V15.8682H4.2696C4.67425 15.8682 4.86675 15.6105 4.86675 15.3025C4.86753 14.9929 4.67425 14.743 4.26882 14.743ZM8.22332 14.787V16.6657H7.33546V14.7878L5.96046 12.085H6.93082L7.78568 13.9314L8.62796 12.085H9.59832L8.22332 14.787ZM12.1409 16.6657H10.2253V12.0857H12.0639C12.9572 12.0857 13.4782 12.587 13.4782 13.372C13.4782 13.8803 13.1435 14.2087 12.9125 14.318C13.189 14.4468 13.5426 14.736 13.5426 15.3472C13.5418 16.2029 12.9565 16.6657 12.1409 16.6657ZM11.9932 12.8832H11.1179V13.9385H11.9924C12.3711 13.9385 12.584 13.7263 12.584 13.412C12.5832 13.0954 12.3719 12.8832 11.9924 12.8832H11.9932ZM12.0505 14.743H11.1187V15.8682H12.0505C12.456 15.8682 12.6477 15.6105 12.6477 15.3025C12.6477 14.9929 12.4552 14.743 12.0505 14.743ZM18.3598 12.8832V16.6657H17.4665V12.8832H16.2714V12.0857H19.5557V12.8832H18.3598Z" fill="white"/>
</g>
<defs>
<linearGradient id="paint0_linear_273_30577" x1="1.83301" y1="6.39906" x2="21.1592" y2="5.43106" gradientUnits="userSpaceOnUse">
<stop stop-color="#FFD748"/>
<stop offset="1" stop-color="#F7A600"/>
</linearGradient>
</defs>
</svg>
