<svg width="22" height="22" viewBox="0 0 22 22" fill="none" xmlns="http://www.w3.org/2000/svg">
<g clip-path="url(#clip0_357_4740)">
<path d="M0 0H22V22H0V0Z" fill="#FFD8EA"/>
<mask id="mask0_357_4740" style="mask-type:luminance" maskUnits="userSpaceOnUse" x="3" y="3" width="16" height="16">
<path d="M3.14258 3.14307H18.0712V18.8574H3.14258V3.14307Z" fill="white"/>
</mask>
<g mask="url(#mask0_357_4740)">
<path d="M7.57106 4.76772C7.3707 4.73708 7.36206 4.73394 7.45713 4.72058C7.63784 4.69308 8.06449 4.73001 8.35913 4.79837C9.04584 4.95708 9.67127 5.36565 10.3383 6.09165L10.5151 6.28494L10.7689 6.24487C11.8375 6.07751 12.9226 6.21029 13.8324 6.61965C14.0831 6.73279 14.4775 6.95751 14.5254 7.01487C14.5427 7.03372 14.571 7.15079 14.5898 7.27808C14.6574 7.71572 14.6244 8.04965 14.4877 8.30029C14.4123 8.43622 14.4083 8.47944 14.4586 8.59651C14.4826 8.64556 14.5199 8.68681 14.5664 8.71546C14.6128 8.74411 14.6665 8.75899 14.7211 8.75837C14.9466 8.75837 15.1901 8.40165 15.3025 7.90508L15.3465 7.70708L15.4353 7.80608C15.9224 8.34429 16.3043 9.07736 16.3695 9.59908L16.386 9.73579L16.3051 9.61165C16.1867 9.42175 16.0286 9.25983 15.8415 9.13708C15.5154 8.92651 15.1697 8.85422 14.2567 8.80708C13.4317 8.76544 12.9642 8.69629 12.5014 8.54858C11.7133 8.29715 11.3166 7.96401 10.3808 6.76501C9.96434 6.23229 9.70899 5.93765 9.45363 5.70115C8.8722 5.16137 8.30177 4.87772 7.57106 4.76772Z" fill="#FF007A"/>
<path d="M14.7118 5.95634C14.7322 5.60041 14.7809 5.3647 14.8815 5.1502C14.9035 5.0952 14.931 5.04334 14.9632 4.99463C14.9567 5.04276 14.9438 5.0898 14.9247 5.13449C14.8524 5.34349 14.8399 5.6287 14.8909 5.96106C14.9546 6.3822 14.9899 6.4427 15.4457 6.89763C15.6602 7.11134 15.9084 7.37927 15.9988 7.49556L16.1638 7.70534L15.9988 7.55527C15.7984 7.3722 15.338 7.01313 15.2351 6.96206C15.1675 6.92906 15.1565 6.92906 15.1149 6.96991C15.0756 7.00763 15.0677 7.0642 15.0614 7.33213C15.0536 7.75013 14.9954 8.01806 14.8548 8.2852C14.7794 8.43213 14.7676 8.4007 14.8352 8.23649C14.887 8.1147 14.8917 8.06049 14.8917 7.65584C14.8917 6.8442 14.7919 6.64777 14.2129 6.31463C14.0381 6.21565 13.8587 6.12493 13.6754 6.04277C13.5851 6.00712 13.4974 5.96511 13.413 5.91706C13.4287 5.90134 13.9944 6.06241 14.2215 6.14727C14.5602 6.27534 14.6159 6.29106 14.6576 6.27613C14.6843 6.26591 14.6984 6.18734 14.7118 5.95634ZM7.95858 7.34706C7.55237 6.8002 7.30015 5.96106 7.35515 5.33327L7.37087 5.1392L7.46437 5.15491C7.6388 5.18634 7.93815 5.29556 8.07958 5.37963C8.46458 5.60749 8.63194 5.90841 8.80087 6.68156C8.85115 6.90784 8.91637 7.1632 8.94623 7.2512C8.99415 7.39106 9.17723 7.71634 9.32573 7.92849C9.43258 8.08091 9.36187 8.1532 9.12537 8.13277C8.76394 8.10134 8.27444 7.77134 7.95858 7.34706ZM14.2168 11.4186C12.3154 10.6722 11.6452 10.0224 11.6452 8.92791C11.6452 8.76606 11.6507 8.63406 11.6577 8.63406C11.664 8.63406 11.7379 8.6867 11.8212 8.7527C12.2069 9.05441 12.6383 9.18327 13.8349 9.35377C14.5389 9.45434 14.9334 9.53527 15.2995 9.65391C16.4624 10.0295 17.1789 10.7924 17.3502 11.8327C17.3997 12.1344 17.3722 12.7001 17.2905 12.9987C17.2261 13.2344 17.032 13.6587 16.9809 13.6752C16.966 13.6807 16.9519 13.6273 16.9495 13.5542C16.9299 13.1645 16.7272 12.7842 16.3877 12.499C16.0027 12.1753 15.4842 11.9168 14.2168 11.4186ZM12.8819 11.7298C12.8594 11.597 12.8287 11.4658 12.7899 11.3369L12.7412 11.1955L12.8316 11.2953C12.9573 11.4312 13.0555 11.6064 13.1388 11.8398C13.2032 12.0181 13.2095 12.0708 13.2095 12.3599C13.2095 12.6436 13.2009 12.7033 13.1412 12.8628C13.0594 13.0985 12.9212 13.3122 12.7404 13.4866C12.3924 13.8323 11.9461 14.0233 11.3002 14.1026C11.1887 14.1168 10.8626 14.1396 10.5758 14.1545C9.85137 14.1906 9.37444 14.2676 8.94701 14.4138C8.90819 14.4305 8.86667 14.4401 8.82444 14.4421C8.80794 14.4256 9.09944 14.2558 9.33987 14.1427C9.67851 13.9824 10.0164 13.8952 10.7738 13.7734C11.147 13.7121 11.5344 13.6375 11.6326 13.6084C12.5582 13.3318 13.0343 12.6153 12.8819 11.7298Z" fill="#FF007A"/>
<path d="M13.7551 13.2433C13.5029 12.7129 13.4439 12.2006 13.5822 11.7229C13.5979 11.6703 13.6215 11.6294 13.6357 11.6294C13.6832 11.6462 13.728 11.67 13.7684 11.7001C13.8855 11.7763 14.1181 11.9052 14.7404 12.236C15.5167 12.65 15.9606 12.9698 16.2615 13.336C16.5247 13.6558 16.6874 14.0211 16.7667 14.4658C16.8115 14.7173 16.7848 15.3246 16.7188 15.5784C16.5098 16.3783 16.0258 17.0068 15.3328 17.3738C15.2675 17.4107 15.1998 17.4433 15.1301 17.4712C15.1199 17.4712 15.1576 17.38 15.2118 17.2677C15.4452 16.7923 15.4719 16.3303 15.2959 15.8157C15.1874 15.5006 14.9674 15.1164 14.5243 14.4658C14.0081 13.7115 13.8824 13.5088 13.7551 13.2433ZM6.60901 16.1064C7.31615 15.5234 8.19301 15.1109 8.99444 14.9828C9.40675 14.931 9.82477 14.9469 10.2319 15.03C10.7442 15.158 11.2023 15.4448 11.4404 15.7858C11.6729 16.1198 11.7727 16.4097 11.8772 17.0571C11.9181 17.3117 11.9629 17.5686 11.9754 17.626C12.054 17.9615 12.2057 18.2294 12.3934 18.3638C12.692 18.5775 13.2082 18.5916 13.715 18.3983C13.7676 18.3745 13.8231 18.3576 13.88 18.348C13.8981 18.3661 13.6435 18.5327 13.4636 18.6207C13.2514 18.7315 13.0142 18.788 12.7729 18.7841C12.3094 18.7841 11.9244 18.5531 11.6022 18.084C11.4842 17.8855 11.3787 17.6798 11.2864 17.468C10.9477 16.713 10.7804 16.4835 10.3867 16.2305C10.0434 16.0105 9.60101 15.972 9.26787 16.1315C8.83101 16.3405 8.71001 16.8858 9.02272 17.2315C9.16965 17.38 9.36058 17.4775 9.5688 17.5097C9.65121 17.5208 9.73506 17.5144 9.81482 17.4909C9.89459 17.4673 9.96846 17.4271 10.0316 17.373C10.0936 17.3192 10.1433 17.2527 10.1773 17.178C10.2114 17.1033 10.2289 17.0221 10.2288 16.94C10.2288 16.7122 10.1392 16.5841 9.91451 16.4835C9.60651 16.3484 9.27651 16.5063 9.27808 16.7884C9.27808 16.9086 9.3323 16.984 9.45565 17.0398C9.53422 17.0744 9.53658 17.076 9.47137 17.0634C9.19008 17.006 9.12408 16.6737 9.35037 16.4537C9.62301 16.1897 10.1864 16.306 10.3797 16.6674C10.4606 16.8198 10.47 17.1215 10.3993 17.3038C10.2398 17.7124 9.77858 17.9269 9.30951 17.8098C8.98972 17.7297 8.86087 17.644 8.47665 17.2575C7.80722 16.5849 7.54794 16.4537 6.58465 16.3068L6.39844 16.2793L6.60901 16.1064Z" fill="#FF007A"/>
<path fill-rule="evenodd" clip-rule="evenodd" d="M3.47116 4.06928C5.70416 6.71556 7.24259 7.80692 7.41309 8.03714C7.55451 8.22806 7.50108 8.40014 7.25987 8.53371C7.08813 8.61852 6.90166 8.66947 6.71066 8.68378C6.55351 8.68378 6.4993 8.62485 6.4993 8.62485C6.40894 8.54156 6.35787 8.55571 5.89194 7.74799C5.49568 7.14223 5.09469 6.53957 4.68901 5.94006C4.65444 5.90864 4.65601 5.90863 5.82673 7.95463C6.0153 8.38128 5.86366 8.53685 5.86366 8.59813C5.86366 8.72149 5.82909 8.78671 5.67351 8.95721C5.41266 9.24006 5.29637 9.55828 5.2123 10.2175C5.11801 10.9561 4.85401 11.4778 4.12016 12.3711C3.69194 12.8944 3.62123 12.9895 3.5128 13.2008C3.37608 13.4664 3.33916 13.6149 3.32423 13.9488C3.3022 14.2617 3.345 14.5757 3.44994 14.8713C3.5458 15.1683 3.64794 15.3631 3.90723 15.7552C4.13116 16.0931 4.25923 16.3445 4.25923 16.4435C4.25923 16.5213 4.27416 16.5213 4.62144 16.4443C5.44958 16.262 6.12216 15.9414 6.50087 15.547C6.73501 15.3026 6.78923 15.1683 6.79158 14.8343C6.79316 14.6167 6.7853 14.5703 6.7248 14.4446C6.62659 14.2403 6.44744 14.0698 6.05301 13.8058C5.53444 13.4601 5.31287 13.182 5.25316 12.8001C5.20208 12.4858 5.26101 12.2643 5.54623 11.6789C5.84244 11.0716 5.91551 10.8123 5.96658 10.2018C5.99801 9.80656 6.04201 9.65099 6.1583 9.52528C6.28008 9.39485 6.38851 9.35085 6.68944 9.31156C7.17894 9.24556 7.4893 9.12299 7.74466 8.89199C7.8464 8.80932 7.92875 8.70533 7.98591 8.58735C8.04307 8.46937 8.07363 8.34029 8.07544 8.20921L8.08644 7.98921L7.96073 7.84856C7.51366 7.33864 3.17101 3.66699 3.14273 3.66699C3.13723 3.66699 3.28416 3.84771 3.47116 4.06928ZM4.51223 14.3511C4.56141 14.2662 4.57604 14.1657 4.55307 14.0703C4.5301 13.9749 4.4713 13.892 4.38887 13.8389C4.22937 13.7344 3.97873 13.7846 3.97873 13.9198C3.97873 13.9614 4.0023 13.9921 4.05573 14.018C4.1453 14.0636 4.15158 14.1138 4.08087 14.2176C4.01016 14.3213 4.01644 14.4124 4.09658 14.4753C4.22859 14.5743 4.41401 14.5201 4.51223 14.3511ZM8.39366 9.42864C8.1658 9.49621 7.94187 9.73428 7.87194 9.98335C7.8303 10.1358 7.85466 10.4029 7.91751 10.4846C8.01966 10.6174 8.11787 10.652 8.3858 10.6512C8.9083 10.6481 9.36244 10.4288 9.41587 10.1546C9.4583 9.92992 9.25873 9.62035 8.98373 9.48285C8.7967 9.40811 8.59207 9.38901 8.39444 9.42785L8.39366 9.42864ZM9.00651 9.89456C9.08666 9.78221 9.0513 9.66199 8.9138 9.58028C8.65373 9.42392 8.25773 9.55278 8.25773 9.79399C8.25773 9.91421 8.46358 10.0454 8.65216 10.0454C8.77787 10.0454 8.95073 9.97235 9.00573 9.89456H9.00651Z" fill="#FF007A"/>
</g>
</g>
<defs>
<clipPath id="clip0_357_4740">
<rect width="22" height="22" rx="4" fill="white"/>
</clipPath>
</defs>
</svg>
