<svg width="22" height="22" viewBox="0 0 22 22" fill="none" xmlns="http://www.w3.org/2000/svg">
<mask id="mask0_273_30636" style="mask-type:luminance" maskUnits="userSpaceOnUse" x="0" y="0" width="22" height="22">
<path d="M0 0H22V22H0V0Z" fill="white"/>
</mask>
<g mask="url(#mask0_273_30636)">
<path d="M22 0H0V22H22V0Z" fill="#8697FF"/>
<path d="M17.7099 11.8468C18.2418 10.6572 15.6097 7.33366 13.0946 5.94923C11.5098 4.87673 9.85749 5.02366 9.52356 5.4943C8.78892 6.5283 11.9546 7.40359 14.0713 8.4258C13.6156 8.6238 13.1873 8.97816 12.9351 9.43151C12.1463 8.57037 10.4138 7.82866 8.38113 8.4258C7.01163 8.82887 5.87392 9.77802 5.43392 11.2119C5.31661 11.16 5.18917 11.1349 5.06091 11.1384C4.93265 11.142 4.80681 11.1741 4.69256 11.2325C4.57831 11.2909 4.47854 11.3741 4.40052 11.4759C4.32251 11.5778 4.26822 11.6958 4.24162 11.8213C4.21503 11.9469 4.21679 12.0767 4.24678 12.2015C4.27677 12.3262 4.33423 12.4427 4.41498 12.5424C4.49573 12.6422 4.59772 12.7226 4.71351 12.7779C4.8293 12.8331 4.95597 12.8619 5.08428 12.8619C5.17228 12.8619 5.44806 12.803 5.44806 12.803L9.85749 12.8352C8.09435 15.6324 6.70049 16.0417 6.70049 16.5265C6.70049 17.0113 8.03385 16.8801 8.53513 16.6994C10.9316 15.8351 13.5063 13.1393 13.9487 12.363C15.803 12.5948 17.3626 12.6223 17.7091 11.8468H17.7099Z" fill="url(#paint0_linear_273_30636)"/>
<path fill-rule="evenodd" clip-rule="evenodd" d="M14.0525 8.41754L14.0721 8.4254C14.1704 8.3869 14.1546 8.24233 14.1271 8.1284C14.0659 7.86676 12.9973 6.81154 11.9939 6.33933C10.6244 5.69504 9.61714 5.72883 9.47021 6.02662C9.74993 6.59704 11.0401 7.1329 12.3884 7.69233C12.9564 7.92804 13.5355 8.16847 14.0525 8.41754Z" fill="url(#paint1_linear_273_30636)"/>
<path fill-rule="evenodd" clip-rule="evenodd" d="M12.3366 14.1713C12.0285 14.0553 11.7136 13.9582 11.3937 13.8806C11.7724 13.2033 11.8518 12.2007 11.4943 11.5666C10.9922 10.6764 10.3629 10.2026 8.89829 10.2026C8.09372 10.2026 5.92594 10.4745 5.88744 12.2832C5.88351 12.4734 5.88744 12.6478 5.90079 12.8073L9.85765 12.8364C9.4273 13.5296 8.93528 14.1825 8.38758 14.7873C8.91322 14.9224 9.34694 15.0356 9.74529 15.1393C10.1224 15.2375 10.4682 15.3279 10.8296 15.4198C11.3562 15.0335 11.8594 14.6172 12.3366 14.1713Z" fill="url(#paint2_linear_273_30636)"/>
<path d="M5.3805 12.621C5.54236 13.996 6.32336 14.5342 7.91993 14.6937C9.5165 14.8532 10.4319 14.7463 11.6513 14.8571C12.6696 14.9498 13.5786 15.4684 13.9157 15.2892C14.219 15.1282 14.0493 14.5452 13.6431 14.1712C13.1166 13.6864 12.3883 13.3493 11.106 13.2291C11.3614 12.5298 11.2899 11.5492 10.8939 11.0157C10.3195 10.2442 9.26036 9.89531 7.91993 10.0477C6.51979 10.2065 5.17779 10.8963 5.3805 12.621Z" fill="url(#paint3_linear_273_30636)"/>
</g>
<defs>
<linearGradient id="paint0_linear_273_30636" x1="8.22163" y1="10.7932" x2="17.5952" y2="13.4512" gradientUnits="userSpaceOnUse">
<stop stop-color="white"/>
<stop offset="1" stop-color="white"/>
</linearGradient>
<linearGradient id="paint1_linear_273_30636" x1="16.0176" y1="10.6144" x2="9.25493" y2="3.83369" gradientUnits="userSpaceOnUse">
<stop stop-color="#7258DC"/>
<stop offset="1" stop-color="#797DEA" stop-opacity="0"/>
</linearGradient>
<linearGradient id="paint2_linear_273_30636" x1="12.5244" y1="14.4078" x2="6.02886" y2="10.6733" gradientUnits="userSpaceOnUse">
<stop stop-color="#7461EA"/>
<stop offset="1" stop-color="#BFC2FF" stop-opacity="0"/>
</linearGradient>
<linearGradient id="paint3_linear_273_30636" x1="8.78186" y1="10.7235" x2="13.1724" y2="16.3028" gradientUnits="userSpaceOnUse">
<stop stop-color="white"/>
<stop offset="0.984" stop-color="#D5CEFF"/>
</linearGradient>
</defs>
</svg>
