<svg width="22" height="22" viewBox="0 0 22 22" fill="none" xmlns="http://www.w3.org/2000/svg">
<g clip-path="url(#clip0_273_30630)">
<path d="M22 0H0V22H22V0Z" fill="#3B99FC"/>
<path d="M6.59183 8.15111C9.02637 5.71656 12.9735 5.71656 15.408 8.15111L15.701 8.4441C15.8228 8.56581 15.8228 8.76318 15.701 8.88489L14.6988 9.88722C14.6379 9.94804 14.5392 9.94804 14.4784 9.88722L14.0751 9.48399C12.3767 7.78559 9.62312 7.78559 7.92472 9.48399L7.49293 9.91574C7.43207 9.97664 7.33339 9.97664 7.27253 9.91574L6.27024 8.91349C6.14851 8.79178 6.14851 8.59441 6.27024 8.4727L6.59183 8.15111ZM17.4809 10.2239L18.3729 11.116C18.4946 11.2377 18.4946 11.4351 18.3729 11.5568L14.3506 15.5791C14.2289 15.7009 14.0315 15.7009 13.9098 15.5791L11.0551 12.7244C11.0246 12.694 10.9753 12.694 10.9449 12.7244L8.09012 15.5791C7.96841 15.7009 7.77106 15.7009 7.64934 15.5792L3.62694 11.5567C3.50521 11.435 3.50521 11.2376 3.62694 11.1159L4.51898 10.2239C4.64071 10.1021 4.83807 10.1021 4.95979 10.2239L7.8146 13.0787C7.84504 13.1091 7.89439 13.1091 7.9248 13.0787L10.7795 10.2239C10.9012 10.1021 11.0985 10.1021 11.2203 10.2239L14.0751 13.0787C14.1055 13.1091 14.1549 13.1091 14.1853 13.0787L17.04 10.2239C17.1618 10.1022 17.3592 10.1022 17.4809 10.2239Z" fill="white"/>
</g>
<defs>
<clipPath id="clip0_273_30630">
<rect width="22" height="22" rx="4" fill="white"/>
</clipPath>
</defs>
</svg>
