<svg width="22" height="22" viewBox="0 0 22 22" fill="none" xmlns="http://www.w3.org/2000/svg">
<g clip-path="url(#clip0_273_30716)">
<path d="M22 0H0V22H22V0Z" fill="#1A1A1C"/>
<path fill-rule="evenodd" clip-rule="evenodd" d="M14.4472 4.62005C13.4369 4.08182 12.67 3.1363 12.3672 2C12.2738 2.34745 12.2257 2.71197 12.2257 3.08791C12.2257 3.38122 12.2568 3.66603 12.3134 3.94227C12.3134 3.94227 12.3134 3.94227 12.3134 3.9451C12.3134 3.94797 12.3163 3.95366 12.3163 3.9565C12.3926 4.32674 12.5172 4.67703 12.6841 5.00169C12.3276 4.73682 12.0106 4.42071 11.7446 4.06473C11.388 6.84713 12.3926 9.74342 14.2293 11.6515C16.6262 14.4595 14.416 19.2241 10.6805 19.0988C5.39423 19.1443 4.48864 11.3098 9.55988 10.0795L9.55706 10.0652C10.9098 9.6238 11.5437 8.73812 11.654 7.58756C9.70139 9.17954 6.61674 7.20595 7.25631 4.73398C-0.0732155 8.36504 2.64918 20.1439 10.9579 19.9987C14.5774 19.9987 17.6393 17.5893 18.644 14.2773C19.8439 10.4155 17.9025 6.30031 14.4472 4.62005Z" fill="#12FE74"/>
</g>
<defs>
<clipPath id="clip0_273_30716">
<rect width="22" height="22" rx="4" fill="white"/>
</clipPath>
</defs>
</svg>
