<svg width="23" height="22" viewBox="0 0 23 22" fill="none" xmlns="http://www.w3.org/2000/svg">
<rect width="23" height="22" rx="4" fill="#131313"/>
<path d="M13.5001 8.99989H9.49989V13.0001H13.5001V8.99989ZM17.5 13.0001H13.5001V17H17.5V13.0001ZM17.5 5H13.5001V8.99989H17.5V5ZM9.49989 13.0001H5.5V17H9.49989V13.0001ZM9.49989 5H5.5V8.99989H9.49989V5Z" fill="white"/>
<path d="M13.5001 8.99989H9.49989M13.5001 8.99989V13.0001M13.5001 8.99989V5H17.5V8.99989H13.5001ZM9.49989 8.99989V13.0001M9.49989 8.99989H5.5V5H9.49989V8.99989ZM9.49989 13.0001H13.5001M9.49989 13.0001H5.5V17H9.49989V13.0001ZM13.5001 13.0001H17.5V17H13.5001V13.0001Z" stroke="white" stroke-linecap="round" stroke-linejoin="round"/>
</svg>
