<svg width="22" height="22" viewBox="0 0 22 22" fill="none" xmlns="http://www.w3.org/2000/svg">
<g clip-path="url(#clip0_273_30698)">
<path d="M0 0H22V22H0V0Z" fill="#1A1A1C"/>
<path d="M11.1728 6.91113L12.5855 7.7047L13.1748 7.1327L15.1446 6.91113L16.302 8.1997L16.4952 10.0556L15.1446 11.2491L12.5855 12.2996L9.45446 11.0432L8.66089 9.43563L9.24939 7.56328L11.172 6.91113H11.1728Z" fill="#1A1A1C"/>
<path fill-rule="evenodd" clip-rule="evenodd" d="M8.61144 15.7267C7.3543 15.7267 6.17573 15.4588 5.1543 14.9889L9.3068 11.1986C9.01282 10.9582 8.77599 10.6553 8.61346 10.3121C8.45094 9.96881 8.36678 9.5937 8.36708 9.2139C8.3668 8.82733 8.45402 8.4457 8.6222 8.09762C8.79039 7.74955 9.03518 7.44406 9.33823 7.20405V6.64697H10.9332C11.5744 6.64697 12.1613 6.88269 12.6107 7.27162C13.0763 6.86801 13.672 6.64618 14.2882 6.64697H15.8832V7.20326C16.2249 7.47435 16.4918 7.82802 16.6587 8.2309C16.8257 8.63378 16.8873 9.07257 16.8376 9.50584C16.7879 9.93912 16.6286 10.3526 16.3747 10.7072C16.1208 11.0618 15.7808 11.3459 15.3867 11.5325C15.0763 12.4487 14.4933 13.2721 13.7123 13.9423V15.1264H11.7488C10.7514 15.5265 9.68608 15.7301 8.61144 15.7259V15.7267ZM10.9332 11.1876C11.4007 11.1876 11.8289 11.025 12.1668 10.7539L12.6068 11.7439L13.0484 10.7492C13.3602 11.001 13.7414 11.1519 14.1411 11.1818C14.5408 11.2116 14.9401 11.1191 15.2859 10.9165C15.6318 10.7139 15.9077 10.4108 16.0771 10.0476C16.2465 9.68429 16.3012 9.27806 16.2341 8.8829C16.1669 8.48775 15.9811 8.1224 15.7012 7.83546C15.4214 7.54852 15.0608 7.35359 14.6674 7.27659C14.2741 7.19959 13.8666 7.24417 13.4992 7.40441C13.1318 7.56465 12.8219 7.83295 12.6107 8.17362C12.4295 7.88144 12.1751 7.64166 11.8727 7.47804C11.5704 7.31441 11.2305 7.23261 10.8868 7.24074C10.5431 7.24887 10.2074 7.34664 9.91311 7.52437C9.61881 7.7021 9.37603 7.95363 9.20883 8.25405C9.04162 8.55446 8.9558 8.89335 8.95984 9.23713C8.96389 9.58092 9.05767 9.91769 9.2319 10.2141C9.40612 10.5105 9.65475 10.7562 9.95316 10.927C10.2516 11.0977 10.5894 11.1876 10.9332 11.1876ZM10.9332 10.5952C11.2996 10.5952 11.6509 10.4497 11.9099 10.1906C12.169 9.93158 12.3145 9.58024 12.3145 9.2139C12.3145 8.84756 12.169 8.49623 11.9099 8.23719C11.6509 7.97815 11.2996 7.83262 10.9332 7.83262C10.5669 7.83262 10.2156 7.97815 9.95651 8.23719C9.69747 8.49623 9.55194 8.84756 9.55194 9.2139C9.55194 9.58024 9.69747 9.93158 9.95651 10.1906C10.2156 10.4497 10.5669 10.5952 10.9332 10.5952ZM10.9332 10.0035C11.1427 10.0035 11.3435 9.92035 11.4916 9.77226C11.6397 9.62418 11.7229 9.42333 11.7229 9.2139C11.7229 9.00448 11.6397 8.80363 11.4916 8.65554C11.3435 8.50745 11.1427 8.42426 10.9332 8.42426C10.7238 8.42426 10.523 8.50745 10.3749 8.65554C10.2268 8.80363 10.1436 9.00448 10.1436 9.2139C10.1436 9.42333 10.2268 9.62418 10.3749 9.77226C10.523 9.92035 10.7238 10.0035 10.9332 10.0035ZM15.6703 9.2139C15.6703 9.58035 15.5247 9.93178 15.2656 10.1909C15.0065 10.45 14.6551 10.5956 14.2886 10.5956C13.9222 10.5956 13.5707 10.45 13.3116 10.1909C13.0525 9.93178 12.9069 9.58035 12.9069 9.2139C12.9069 8.84746 13.0525 8.49602 13.3116 8.23691C13.5707 7.97779 13.9222 7.83222 14.2886 7.83222C14.6551 7.83222 15.0065 7.97779 15.2656 8.23691C15.5247 8.49602 15.6703 8.84746 15.6703 9.2139ZM15.0779 9.2139C15.0779 9.42333 14.9947 9.62418 14.8466 9.77226C14.6985 9.92035 14.4977 10.0035 14.2882 10.0035C14.0788 10.0035 13.878 9.92035 13.7299 9.77226C13.5818 9.62418 13.4986 9.42333 13.4986 9.2139C13.4986 9.00448 13.5818 8.80363 13.7299 8.65554C13.878 8.50745 14.0788 8.42426 14.2882 8.42426C14.4977 8.42426 14.6985 8.50745 14.8466 8.65554C14.9947 8.80363 15.0779 9.00448 15.0779 9.2139Z" fill="white"/>
<path fill-rule="evenodd" clip-rule="evenodd" d="M11.7496 15.1272H13.7123V13.9431C14.4933 13.2729 15.0763 12.4495 15.3867 11.5333C15.7808 11.3466 16.1208 11.0626 16.3747 10.708C16.6286 10.3534 16.7879 9.9399 16.8376 9.50663C16.8873 9.07336 16.8257 8.63457 16.6587 8.23169C16.4918 7.82881 16.2249 7.47513 15.8832 7.20405V6.64697H14.2882C13.6471 6.64697 13.0609 6.88269 12.6107 7.27162C12.1451 6.86801 11.5494 6.64618 10.9332 6.64697H9.33823V7.20326C9.03518 7.44327 8.79039 7.74876 8.6222 8.09684C8.45402 8.44491 8.3668 8.82654 8.36708 9.21312C8.36645 9.59297 8.45046 9.96819 8.61301 10.3115C8.77556 10.6548 9.01256 10.9576 9.3068 11.1978L5.1543 14.9889C5.2863 15.0494 5.42144 15.1068 5.55737 15.161C6.48137 15.524 7.51694 15.7267 8.61144 15.7267C9.73894 15.7267 10.8044 15.5114 11.7488 15.1272H11.7496ZM12.3522 7.84205C12.0863 7.56699 11.7462 7.37514 11.3733 7.28983C11.0004 7.20452 10.6107 7.22943 10.2516 7.36154C9.89259 7.49364 9.57968 7.72725 9.35098 8.03392C9.12227 8.3406 8.98762 8.70714 8.96341 9.08894C8.9392 9.47074 9.02647 9.85135 9.21461 10.1845C9.40275 10.5176 9.68364 10.7888 10.0231 10.9652C10.3626 11.1416 10.746 11.2156 11.1267 11.178C11.5075 11.1405 11.8691 10.9932 12.1676 10.7539L12.6076 11.7439L13.0484 10.7492C13.3991 11.0333 13.8369 11.1881 14.2882 11.1876C14.632 11.1876 14.9699 11.0977 15.2683 10.927C15.5667 10.7562 15.8153 10.5105 15.9896 10.2141C16.1638 9.91769 16.2576 9.58092 16.2616 9.23713C16.2657 8.89335 16.1798 8.55446 16.0126 8.25405C15.8454 7.95363 15.6026 7.7021 15.3083 7.52437C15.014 7.34664 14.6784 7.24887 14.3347 7.24074C13.991 7.23261 13.6511 7.31441 13.3487 7.47804C13.0463 7.64166 12.7919 7.88144 12.6107 8.17362C12.5365 8.05425 12.4499 7.94311 12.3522 7.84205ZM12.6068 10.761L12.8362 10.244C12.7416 10.111 12.6657 9.96556 12.6107 9.81183C12.5542 9.96897 12.4772 10.1175 12.3805 10.2518L12.6068 10.761ZM10.9332 9.6044C11.0368 9.6044 11.1361 9.56326 11.2094 9.49003C11.2826 9.4168 11.3237 9.31747 11.3237 9.2139C11.3237 9.11034 11.2826 9.01101 11.2094 8.93778C11.1361 8.86455 11.0368 8.8234 10.9332 8.8234C10.8297 8.8234 10.7303 8.86455 10.6571 8.93778C10.5839 9.01101 10.5427 9.11034 10.5427 9.2139C10.5427 9.31747 10.5839 9.4168 10.6571 9.49003C10.7303 9.56326 10.8297 9.6044 10.9332 9.6044ZM14.2882 9.6044C14.3918 9.6044 14.4911 9.56326 14.5644 9.49003C14.6376 9.4168 14.6787 9.31747 14.6787 9.2139C14.6787 9.11034 14.6376 9.01101 14.5644 8.93778C14.4911 8.86455 14.3918 8.8234 14.2882 8.8234C14.1847 8.8234 14.0853 8.86455 14.0121 8.93778C13.9389 9.01101 13.8977 9.11034 13.8977 9.2139C13.8977 9.31747 13.9389 9.4168 14.0121 9.49003C14.0853 9.56326 14.1847 9.6044 14.2882 9.6044ZM12.3145 9.2139C12.3145 9.3953 12.2788 9.57491 12.2094 9.7425C12.14 9.91008 12.0382 10.0624 11.9099 10.1906C11.7817 10.3189 11.6294 10.4206 11.4618 10.49C11.2942 10.5595 11.1146 10.5952 10.9332 10.5952C10.7518 10.5952 10.5722 10.5595 10.4046 10.49C10.237 10.4206 10.0848 10.3189 9.95651 10.1906C9.82825 10.0624 9.7265 9.91008 9.65708 9.7425C9.58767 9.57491 9.55194 9.3953 9.55194 9.2139C9.55194 8.84756 9.69747 8.49623 9.95651 8.23719C10.2156 7.97815 10.5669 7.83262 10.9332 7.83262C11.2996 7.83262 11.6509 7.97815 11.9099 8.23719C12.169 8.49623 12.3145 8.84756 12.3145 9.2139ZM11.7229 9.2139C11.7229 9.42333 11.6397 9.62418 11.4916 9.77226C11.3435 9.92035 11.1427 10.0035 10.9332 10.0035C10.7238 10.0035 10.523 9.92035 10.3749 9.77226C10.2268 9.62418 10.1436 9.42333 10.1436 9.2139C10.1436 9.00448 10.2268 8.80363 10.3749 8.65554C10.523 8.50745 10.7238 8.42426 10.9332 8.42426C11.1427 8.42426 11.3435 8.50745 11.4916 8.65554C11.6397 8.80363 11.7229 9.00448 11.7229 9.2139ZM14.2882 10.5952C14.6547 10.5952 15.0061 10.4496 15.2652 10.1905C15.5243 9.93139 15.6699 9.57995 15.6699 9.21351C15.6699 8.84707 15.5243 8.49563 15.2652 8.23652C15.0061 7.9774 14.6547 7.83183 14.2882 7.83183C13.9218 7.83183 13.5703 7.9774 13.3112 8.23652C13.0521 8.49563 12.9065 8.84707 12.9065 9.21351C12.9065 9.57995 13.0521 9.93139 13.3112 10.1905C13.5703 10.4496 13.9218 10.5952 14.2882 10.5952ZM14.2882 10.0035C14.4977 10.0035 14.6985 9.92035 14.8466 9.77226C14.9947 9.62418 15.0779 9.42333 15.0779 9.2139C15.0779 9.00448 14.9947 8.80363 14.8466 8.65554C14.6985 8.50745 14.4977 8.42426 14.2882 8.42426C14.0788 8.42426 13.878 8.50745 13.7299 8.65554C13.5818 8.80363 13.4986 9.00448 13.4986 9.2139C13.4986 9.42333 13.5818 9.62418 13.7299 9.77226C13.878 9.92035 14.0788 10.0035 14.2882 10.0035Z" fill="#1A1A1C"/>
<path fill-rule="evenodd" clip-rule="evenodd" d="M8.61144 15.7267C7.3543 15.7267 6.17573 15.4588 5.1543 14.9889L9.3068 11.1986C9.01282 10.9582 8.77599 10.6553 8.61346 10.3121C8.45094 9.96881 8.36678 9.5937 8.36708 9.2139C8.3668 8.82733 8.45402 8.4457 8.6222 8.09762C8.79039 7.74955 9.03518 7.44406 9.33823 7.20405V6.64697H10.9332C11.5744 6.64697 12.1613 6.88269 12.6107 7.27162C13.0763 6.86801 13.672 6.64618 14.2882 6.64697H15.8832V7.20326C16.2249 7.47435 16.4918 7.82802 16.6587 8.2309C16.8257 8.63378 16.8873 9.07257 16.8376 9.50584C16.7879 9.93912 16.6286 10.3526 16.3747 10.7072C16.1208 11.0618 15.7808 11.3459 15.3867 11.5325C15.0763 12.4487 14.4933 13.2721 13.7123 13.9423V15.1264H11.7488C10.7514 15.5265 9.68608 15.7301 8.61144 15.7259V15.7267ZM10.9332 11.1876C11.4007 11.1876 11.8289 11.025 12.1668 10.7539L12.6068 11.7439L13.0484 10.7492C13.3602 11.001 13.7414 11.1519 14.1411 11.1818C14.5408 11.2116 14.9401 11.1191 15.2859 10.9165C15.6318 10.7139 15.9077 10.4108 16.0771 10.0476C16.2465 9.68429 16.3012 9.27806 16.2341 8.8829C16.1669 8.48775 15.9811 8.1224 15.7012 7.83546C15.4214 7.54852 15.0608 7.35359 14.6674 7.27659C14.2741 7.19959 13.8666 7.24417 13.4992 7.40441C13.1318 7.56465 12.8219 7.83295 12.6107 8.17362C12.4295 7.88144 12.1751 7.64166 11.8727 7.47804C11.5704 7.31441 11.2305 7.23261 10.8868 7.24074C10.5431 7.24887 10.2074 7.34664 9.91311 7.52437C9.61881 7.7021 9.37603 7.95363 9.20883 8.25405C9.04162 8.55446 8.9558 8.89335 8.95984 9.23713C8.96389 9.58092 9.05767 9.91769 9.2319 10.2141C9.40612 10.5105 9.65475 10.7562 9.95316 10.927C10.2516 11.0977 10.5894 11.1876 10.9332 11.1876ZM10.9332 10.5952C11.2996 10.5952 11.6509 10.4497 11.9099 10.1906C12.169 9.93158 12.3145 9.58024 12.3145 9.2139C12.3145 8.84756 12.169 8.49623 11.9099 8.23719C11.6509 7.97815 11.2996 7.83262 10.9332 7.83262C10.5669 7.83262 10.2156 7.97815 9.95651 8.23719C9.69747 8.49623 9.55194 8.84756 9.55194 9.2139C9.55194 9.58024 9.69747 9.93158 9.95651 10.1906C10.2156 10.4497 10.5669 10.5952 10.9332 10.5952ZM10.9332 10.0035C11.1427 10.0035 11.3435 9.92035 11.4916 9.77226C11.6397 9.62418 11.7229 9.42333 11.7229 9.2139C11.7229 9.00448 11.6397 8.80363 11.4916 8.65554C11.3435 8.50745 11.1427 8.42426 10.9332 8.42426C10.7238 8.42426 10.523 8.50745 10.3749 8.65554C10.2268 8.80363 10.1436 9.00448 10.1436 9.2139C10.1436 9.42333 10.2268 9.62418 10.3749 9.77226C10.523 9.92035 10.7238 10.0035 10.9332 10.0035ZM15.6703 9.2139C15.6703 9.58035 15.5247 9.93178 15.2656 10.1909C15.0065 10.45 14.6551 10.5956 14.2886 10.5956C13.9222 10.5956 13.5707 10.45 13.3116 10.1909C13.0525 9.93178 12.9069 9.58035 12.9069 9.2139C12.9069 8.84746 13.0525 8.49602 13.3116 8.23691C13.5707 7.97779 13.9222 7.83222 14.2886 7.83222C14.6551 7.83222 15.0065 7.97779 15.2656 8.23691C15.5247 8.49602 15.6703 8.84746 15.6703 9.2139ZM15.0779 9.2139C15.0779 9.42333 14.9947 9.62418 14.8466 9.77226C14.6985 9.92035 14.4977 10.0035 14.2882 10.0035C14.0788 10.0035 13.878 9.92035 13.7299 9.77226C13.5818 9.62418 13.4986 9.42333 13.4986 9.2139C13.4986 9.00448 13.5818 8.80363 13.7299 8.65554C13.878 8.50745 14.0788 8.42426 14.2882 8.42426C14.4977 8.42426 14.6985 8.50745 14.8466 8.65554C14.9947 8.80363 15.0779 9.00448 15.0779 9.2139Z" fill="white"/>
<path d="M12.896 9.19775C12.896 9.72194 12.6878 10.2247 12.3172 10.5953C11.9465 10.966 11.4438 11.1742 10.9196 11.1742C10.3954 11.1742 9.89267 10.966 9.52201 10.5953C9.15135 10.2247 8.94312 9.72194 8.94312 9.19775C8.94312 8.67366 9.15131 8.17104 9.52189 7.80046C9.89248 7.42987 10.3951 7.22168 10.9192 7.22168C11.4433 7.22168 11.9459 7.42987 12.3165 7.80046C12.6871 8.17104 12.896 8.67366 12.896 9.19775Z" fill="#1A1A1C"/>
<path d="M16.2556 9.19775C16.2556 9.72184 16.0474 10.2245 15.6768 10.595C15.3062 10.9656 14.8036 11.1738 14.2795 11.1738C13.7555 11.1738 13.2528 10.9656 12.8822 10.595C12.5117 10.2245 12.3035 9.72184 12.3035 9.19775C12.3035 8.67366 12.5117 8.17104 12.8822 7.80046C13.2528 7.42987 13.7555 7.22168 14.2795 7.22168C14.8036 7.22168 15.3062 7.42987 15.6768 7.80046C16.0474 8.17104 16.2556 8.67366 16.2556 9.19775Z" fill="#1A1A1C"/>
<path d="M12.3026 9.1977C12.3026 9.56456 12.1569 9.9164 11.8975 10.1758C11.6381 10.4352 11.2862 10.581 10.9194 10.581C10.5525 10.581 10.2007 10.4352 9.94128 10.1758C9.68187 9.9164 9.53613 9.56456 9.53613 9.1977C9.53613 8.83084 9.68187 8.47901 9.94128 8.2196C10.2007 7.96019 10.5525 7.81445 10.9194 7.81445C11.2862 7.81445 11.6381 7.96019 11.8975 8.2196C12.1569 8.47901 12.3026 8.83084 12.3026 9.1977ZM15.6623 9.1977C15.6623 9.56456 15.5166 9.9164 15.2572 10.1758C14.9978 10.4352 14.646 10.581 14.2791 10.581C13.9122 10.581 13.5604 10.4352 13.301 10.1758C13.0416 9.9164 12.8958 9.56456 12.8958 9.1977C12.8958 8.83084 13.0416 8.47901 13.301 8.2196C13.5604 7.96019 13.9122 7.81445 14.2791 7.81445C14.646 7.81445 14.9978 7.96019 15.2572 8.2196C15.5166 8.47901 15.6623 8.83084 15.6623 9.1977Z" fill="white"/>
<path d="M11.7095 9.19756C11.7095 9.40719 11.6262 9.60824 11.478 9.75648C11.3298 9.90471 11.1287 9.98799 10.9191 9.98799C10.7095 9.98799 10.5084 9.90471 10.3602 9.75648C10.2119 9.60824 10.1287 9.40719 10.1287 9.19756C10.1287 8.98793 10.2119 8.78688 10.3602 8.63864C10.5084 8.49041 10.7095 8.40713 10.9191 8.40713C11.1287 8.40713 11.3298 8.49041 11.478 8.63864C11.6262 8.78688 11.7095 8.98793 11.7095 9.19756ZM15.07 9.19756C15.07 9.4073 14.9867 9.60845 14.8384 9.75675C14.6901 9.90506 14.4889 9.98838 14.2792 9.98838C14.0695 9.98838 13.8683 9.90506 13.72 9.75675C13.5717 9.60845 13.4884 9.4073 13.4884 9.19756C13.4884 8.98782 13.5717 8.78667 13.72 8.63836C13.8683 8.49006 14.0695 8.40674 14.2792 8.40674C14.4889 8.40674 14.6901 8.49006 14.8384 8.63836C14.9867 8.78667 15.07 8.98782 15.07 9.19756ZM12.595 11.7307L11.9114 10.1891H13.2802L12.595 11.7307Z" fill="#1A1A1C"/>
</g>
<defs>
<clipPath id="clip0_273_30698">
<rect width="22" height="22" rx="4" fill="white"/>
</clipPath>
</defs>
</svg>
