<svg width="22" height="22" viewBox="0 0 22 22" fill="none" xmlns="http://www.w3.org/2000/svg">
<g clip-path="url(#clip0_273_30653)">
<path d="M22 0H0V22H22V0Z" fill="white"/>
<path d="M12.4955 5.5H9.31039C9.20393 5.5 9.11868 5.58592 9.1164 5.69271C9.05205 8.69456 7.48709 11.5436 4.79352 13.5617C4.70801 13.6257 4.68852 13.7461 4.75104 13.8327L6.6146 16.4188C6.678 16.5068 6.80153 16.5266 6.88848 16.4619C8.57269 15.2084 9.92741 13.6961 10.903 12.0199C11.8785 13.6961 13.2333 15.2084 14.9175 16.4619C15.0044 16.5266 15.1279 16.5068 15.1914 16.4188L17.0549 13.8327C17.1174 13.7461 17.0979 13.6257 17.0125 13.5617C14.3189 11.5436 12.7539 8.69456 12.6897 5.69271C12.6873 5.58592 12.602 5.5 12.4955 5.5Z" fill="#FF875B"/>
</g>
<defs>
<clipPath id="clip0_273_30653">
<rect width="22" height="22" rx="4" fill="white"/>
</clipPath>
</defs>
</svg>
