<svg width="22" height="22" viewBox="0 0 22 22" fill="none" xmlns="http://www.w3.org/2000/svg">
<g clip-path="url(#clip0_273_30754)">
<mask id="mask0_273_30754" style="mask-type:luminance" maskUnits="userSpaceOnUse" x="0" y="0" width="22" height="22">
<path d="M0 0H22V22H0V0Z" fill="white"/>
</mask>
<g mask="url(#mask0_273_30754)">
<path fill-rule="evenodd" clip-rule="evenodd" d="M11 0C4.92511 0 0 4.92511 0 11C0 17.0749 4.92511 22 11 22C17.0755 22 22 17.0749 22 11C22 4.92511 17.0755 0 11 0Z" fill="#109D84"/>
</g>
<mask id="mask1_273_30754" style="mask-type:luminance" maskUnits="userSpaceOnUse" x="0" y="0" width="22" height="22">
<path d="M0 0H22V22H0V0Z" fill="white"/>
</mask>
<g mask="url(#mask1_273_30754)">
<path fill-rule="evenodd" clip-rule="evenodd" d="M0 0H22V22H0V0Z" fill="#109D84"/>
</g>
<mask id="mask2_273_30754" style="mask-type:luminance" maskUnits="userSpaceOnUse" x="0" y="0" width="22" height="22">
<path d="M0 0H22V22H0V0Z" fill="white"/>
</mask>
<g mask="url(#mask2_273_30754)">
<path fill-rule="evenodd" clip-rule="evenodd" d="M4.39415 9.14277L13.6978 15.2084C13.7841 15.2721 13.8345 15.3722 13.8345 15.4799L13.7887 18.4297C13.7887 18.7464 13.4066 18.9056 13.1826 18.6821L4.37562 10.5658C4.31513 10.5056 4.26712 10.4341 4.23434 10.3553C4.20155 10.2765 4.18464 10.1921 4.18457 10.1067V9.24814C4.18457 9.14046 4.30731 9.07793 4.39415 9.14277ZM9.44836 3.31567L18.3005 11.5101C18.4249 11.6317 18.495 11.7996 18.495 11.9732V12.8648C18.4951 12.8891 18.4884 12.913 18.4757 12.9337C18.4631 12.9545 18.4449 12.9713 18.4233 12.9824C18.4016 12.9934 18.3773 12.9982 18.3531 12.9963C18.3288 12.9943 18.3056 12.9857 18.286 12.9714L11.5835 8.80524C11.5646 8.79162 11.5423 8.78348 11.5191 8.7817C11.4958 8.77993 11.4726 8.78459 11.4518 8.79518C11.431 8.80577 11.4136 8.82187 11.4014 8.84173C11.3892 8.86158 11.3827 8.88441 11.3826 8.90772V9.35409C11.3826 9.50172 11.4423 9.64298 11.5476 9.74603L13.6197 11.7747C13.7575 11.9096 13.8345 12.0937 13.8345 12.287V14.0106C13.8345 14.1101 13.7164 14.1611 13.6434 14.0934L10.2473 10.9254L9.06973 9.81377C8.99861 9.7469 8.94193 9.66616 8.9032 9.57655C8.86447 9.48694 8.8445 9.39034 8.84452 9.29272V3.57098C8.84452 3.25603 9.22373 3.09624 9.44894 3.31624L9.44836 3.31567Z" fill="white"/>
</g>
</g>
<defs>
<clipPath id="clip0_273_30754">
<rect width="22" height="22" rx="4" fill="white"/>
</clipPath>
</defs>
</svg>
