<svg width="26" height="26" viewBox="0 0 26 26" fill="none" xmlns="http://www.w3.org/2000/svg">
<path d="M22.3684 2.89697L14.2485 8.92773L15.7501 5.36967L22.3684 2.89697Z" fill="#E2761B" stroke="#E2761B" stroke-width="0.227273" stroke-linecap="round" stroke-linejoin="round"/>
<path d="M3.62323 2.89697L11.6778 8.98486L10.2497 5.36967L3.62323 2.89697ZM19.4468 16.8763L17.2842 20.1895L21.9114 21.4626L23.2416 16.9497L19.4468 16.8763ZM2.76636 16.9497L4.08839 21.4626L8.71551 20.1895L6.55292 16.8763L2.76636 16.9497Z" fill="#E4761B" stroke="#E4761B" stroke-width="0.227273" stroke-linecap="round" stroke-linejoin="round"/>
<path d="M8.45443 11.2779L7.16504 13.2283L11.7595 13.4323L11.5963 8.49511L8.45443 11.2779ZM17.5373 11.2779L14.3546 8.43799L14.2485 13.4323L18.8348 13.2283L17.5373 11.2779ZM8.71557 20.1894L11.4739 18.8429L9.09096 16.9822L8.71557 20.1894ZM14.5178 18.8429L17.2843 20.1894L16.9008 16.9822L14.5178 18.8429Z" fill="#E4761B" stroke="#E4761B" stroke-width="0.227273" stroke-linecap="round" stroke-linejoin="round"/>
<path d="M17.2843 20.1898L14.5178 18.8433L14.7382 20.6468L14.7137 21.4057L17.2843 20.1898ZM8.71558 20.1898L11.2862 21.4057L11.2699 20.6468L11.4739 18.8433L8.71558 20.1898Z" fill="#D7C1B3" stroke="#D7C1B3" stroke-width="0.227273" stroke-linecap="round" stroke-linejoin="round"/>
<path d="M11.3272 15.7911L9.02588 15.1137L10.6499 14.3711L11.3272 15.7911ZM14.6649 15.7911L15.3423 14.3711L16.9744 15.1137L14.6649 15.7911Z" fill="#233447" stroke="#233447" stroke-width="0.227273" stroke-linecap="round" stroke-linejoin="round"/>
<path d="M8.71556 20.1896L9.10728 16.8763L6.55298 16.9498L8.71556 20.1896ZM16.8926 16.8763L17.2843 20.1896L19.4469 16.9498L16.8926 16.8763ZM18.8348 13.2285L14.2485 13.4325L14.6729 15.791L15.3502 14.371L16.9824 15.1136L18.8348 13.2285ZM9.02567 15.1136L10.6578 14.371L11.327 15.791L11.7595 13.4325L7.16503 13.2285L9.02567 15.1136Z" fill="#CD6116" stroke="#CD6116" stroke-width="0.227273" stroke-linecap="round" stroke-linejoin="round"/>
<path d="M7.16504 13.2285L9.09096 16.9824L9.02568 15.1136L7.16504 13.2285ZM16.9824 15.1136L16.9008 16.9824L18.8348 13.2285L16.9824 15.1136ZM11.7595 13.4325L11.327 15.791L11.8656 18.5738L11.988 14.9096L11.7595 13.4325ZM14.2485 13.4325L14.0282 14.9015L14.1261 18.5738L14.6729 15.791L14.2485 13.4325Z" fill="#E4751F" stroke="#E4751F" stroke-width="0.227273" stroke-linecap="round" stroke-linejoin="round"/>
<path d="M14.6731 15.7911L14.1263 18.5739L14.518 18.8432L16.901 16.9826L16.9826 15.1138L14.6731 15.7911ZM9.02588 15.1138L9.09116 16.9826L11.4741 18.8432L11.8658 18.5739L11.3272 15.7911L9.02588 15.1138Z" fill="#F6851B" stroke="#F6851B" stroke-width="0.227273" stroke-linecap="round" stroke-linejoin="round"/>
<path d="M14.7137 21.4054L14.7382 20.6465L14.5342 20.4669H11.4576L11.2699 20.6465L11.2862 21.4054L8.71558 20.1895L9.61325 20.9239L11.4331 22.1888H14.5586L16.3866 20.9239L17.2843 20.1895L14.7137 21.4054Z" fill="#C0AD9E" stroke="#C0AD9E" stroke-width="0.227273" stroke-linecap="round" stroke-linejoin="round"/>
<path d="M14.518 18.843L14.1263 18.5737H11.8657L11.474 18.843L11.27 20.6465L11.4577 20.467H14.5343L14.7383 20.6465L14.518 18.843Z" fill="#161616" stroke="#161616" stroke-width="0.227273" stroke-linecap="round" stroke-linejoin="round"/>
<path d="M22.7111 9.31945L23.4048 5.98988L22.3684 2.89697L14.5178 8.72371L17.5372 11.278L21.8053 12.5266L22.7519 11.4249L22.3439 11.1311L22.9967 10.5354L22.4908 10.1437L23.1436 9.64587L22.7111 9.31945ZM2.59497 5.98988L3.28863 9.31945L2.84795 9.64587L3.50081 10.1437L3.00301 10.5354L3.65586 11.1311L3.24783 11.4249L4.18631 12.5266L8.45436 11.278L11.4738 8.72371L3.62322 2.89697L2.59497 5.98988Z" fill="#763D16" stroke="#763D16" stroke-width="0.227273" stroke-linecap="round" stroke-linejoin="round"/>
<path d="M21.8053 12.5266L17.5372 11.278L18.8348 13.2284L16.9007 16.9823L19.4468 16.9497H23.2416L21.8053 12.5266ZM8.45437 11.278L4.18632 12.5266L2.76636 16.9497H6.55292L9.0909 16.9823L7.16498 13.2284L8.45437 11.278ZM14.2485 13.4324L14.5178 8.72368L15.7582 5.36963H10.2497L11.4738 8.72368L11.7595 13.4324L11.8574 14.9177L11.8655 18.5736H14.1261L14.1424 14.9177L14.2485 13.4324Z" fill="#F6851B" stroke="#F6851B" stroke-width="0.227273" stroke-linecap="round" stroke-linejoin="round"/>
</svg>
